<?xml version="1.0" encoding="UTF-8" standalone="no"?>
<!-- Created with Inkscape (http://www.inkscape.org/) -->

<svg
   width="30.973877"
   height="30.986015"
   viewBox="0 0 30.973877 30.986015"
   version="1.1"
   id="svg1"
   xmlnsSvg="http://www.w3.org/2000/svg"
   sodipodi:docname="like.svg"
   xmlns:inkscape="http://www.inkscape.org/namespaces/inkscape"
   xmlns:sodipodi="http://sodipodi.sourceforge.net/DTD/sodipodi-0.dtd"
   xmlns="http://www.w3.org/2000/svg"
   xmlns:svg="http://www.w3.org/2000/svg">
  <sodipodi:namedview
     id="namedview1"
     pagecolor="#ffffff"
     bordercolor="#000000"
     borderopacity="0.25"
     inkscape:showpageshadow="2"
     inkscape:pageopacity="0.0"
     inkscape:pagecheckerboard="0"
     inkscape:deskcolor="#d1d1d1" />
  <defs
     id="defs1" />
  <g
     id="layer1"
     transform="translate(-0.52800715,-0.55472004)">
    <path
       d="m 19.441325,1.1842877 c -1.025749,0.01547 -2.295159,0.344102 -3.568334,1.462891 0,0 -0.999366,0.923236 -1.474599,5.179689 C 14.041499,11.0234 13.915974,12.408901 13.915974,12.408901 L 3.00199,12.446012 c 0,0 -2.48892827,1.870896 -1.6911107,3.352074 1.129537,2.097022 -0.47066249,3.115365 0.4832691,4.381595 2.3581991,3.130226 -0.4711215,3.457642 0.8782195,4.927395 1.6140193,1.75805 0.7742871,3.526331 2.0913282,4.352609 1.9222259,1.205956 2.4003734,1.417969 2.4003734,1.417969 l 23.7088145,0.0332 V 14.867886 l -5.820272,0.03515 -3.878877,-3.783203 c 0,0 -0.288453,-7.2870913 0.501949,-9.4589893 0,0 -0.915539,-0.496447 -2.234359,-0.476561 z"
       style="opacity:1;fill:#000000;fill-opacity:1;stroke:#000000;stroke-width:1.258;stroke-dasharray:none"
       id="path6" />
    <path
       d="m 20.309633,2.3189272 c -0.815977,-0.08944 -3.662874,0.298984 -3.878784,1.890485 0,0 -0.607562,1.379258 -1.020195,4.825204 C 15.100773,11.62247 15.02895,13.63613 15.02895,13.63613 L 3.4713036,13.480342 c 0,0 -1.900913,0.734153 -1.2081873,1.933289 0.9807492,1.69771 -0.2600005,3.19113 0.568275,4.216247 2.0475668,2.534175 -0.260399,4.211555 0.9112009,5.401439 1.4014135,1.423285 0.6722946,2.854853 1.8158491,3.523793 1.6690219,0.976318 2.0841858,1.147961 2.0841858,1.147961 l 22.0352619,0.06405 V 16.07287 L 24.438458,16.027 20.067039,11.551878 c 0,0 -0.213288,-2.0342193 -0.0845,-3.6810493 0,0 0.134213,-1.702728 0.178428,-3.173273 z"
       style="display:none;fill:none;stroke:#686868;stroke-width:1.258;stroke-dasharray:none;stroke-opacity:1"
       id="path7" />
  </g>
</svg>
