<?xml version="1.0" encoding="UTF-8" standalone="no"?>
<!-- Created with Inkscape (http://www.inkscape.org/) -->

<svg
   width="32"
   height="32"
   viewBox="0 0 32 32"
   version="1.1"
   id="svg1"
   xmlns="http://www.w3.org/2000/svg"
   xmlnsSvg="http://www.w3.org/2000/svg">
  <defs
     id="defs1" />
  <g
     id="layer1">
    <path
       d="m 19.441325,30.911173 c -1.025749,-0.01547 -2.295159,-0.344102 -3.568334,-1.462891 0,0 -0.999366,-0.923236 -1.474599,-5.179689 C 14.041499,21.072061 13.915974,19.68656 13.915974,19.68656 L 3.00199,19.649449 c 0,0 -2.48892827,-1.870896 -1.6911107,-3.352074 C 2.4404163,14.200353 0.84021681,13.18201 1.7941484,11.91578 4.1523475,8.7855533 1.3230269,8.4581372 2.6723679,6.9883848 4.2863872,5.2303344 3.446655,3.462054 4.7636961,2.6357758 6.685922,1.4298194 7.1640695,1.2178064 7.1640695,1.2178064 l 23.7088145,-0.0332 V 17.227575 l -5.820272,-0.03515 -3.878877,3.783203 c 0,0 -0.288453,7.287091 0.501949,9.458989 0,0 -0.915539,0.496447 -2.234359,0.476561 z"
       style="opacity:1;fill:none;stroke:#000000;stroke-width:1.258;stroke-dasharray:none"
       id="path6" />
    <path
       d="m 20.309633,29.753304 c -0.815977,0.08944 -3.662874,-0.298984 -3.878784,-1.890485 0,0 -0.607562,-1.379258 -1.020195,-4.825204 C 15.100773,20.449761 15.02895,18.436101 15.02895,18.436101 L 3.4713036,18.591889 c 0,0 -1.900913,-0.734153 -1.2081873,-1.933289 C 3.2438655,14.96089 2.0031158,13.46747 2.8313913,12.442353 4.8789581,9.9081786 2.5709923,8.2307978 3.7425922,7.0409138 5.1440057,5.6176288 4.4148868,4.1860608 5.5584413,3.5171208 7.2274632,2.5408028 7.6426271,2.3691598 7.6426271,2.3691598 L 29.677889,2.3051138 V 15.999361 l -5.239431,0.04587 -4.371419,4.475122 c 0,0 -0.213288,2.034219 -0.0845,3.681049 0,0 0.134213,1.702728 0.178428,3.173274 z"
       style="fill:none;stroke:#686868;stroke-width:1.258;stroke-dasharray:none;stroke-opacity:1"
       id="path7" />
  </g>
</svg>
