<?xml version="1.0" encoding="UTF-8" standalone="no"?>
<svg
   xmlns:dc="http://purl.org/dc/elements/1.1/"
   xmlns:cc="http://creativecommons.org/ns#"
   xmlns:rdf="http://www.w3.org/1999/02/22-rdf-syntax-ns#"
   xmlns:svg="http://www.w3.org/2000/svg"
   xmlns="http://www.w3.org/2000/svg"
   xmlns:sodipodi="http://sodipodi.sourceforge.net/DTD/sodipodi-0.dtd"
   xmlns:inkscape="http://www.inkscape.org/namespaces/inkscape"
   version="1.0"
   width="128"
   height="128"
   id="svg2"
   sodipodi:version="0.32"
   inkscape:version="0.91 r"
   sodipodi:docname="inkscape-flat-w-transp-white.svg"
   inkscape:output_extension="org.inkscape.output.svg.inkscape"
   inkscape:export-filename="/home/valessio/Desenvolvimento/inkscape/inkscape/inkscape.png"
   inkscape:export-xdpi="45"
   inkscape:export-ydpi="45"
   viewBox="0 0 128 128">
  <title
     id="title7387">Inkscape Logo</title>
  <sodipodi:namedview
     bordercohor="#666666"
     inkscape:window-height="577"
     inkscape:window-width="862"
     inkscape:pageshadow="2"
     inkscape:pageopacity="0"
     guidetolerance="10.0"
     gridtolerance="10.0"
     objecttolerance="10.0"
     borderopacity="1.0"
     bordercolor="#666666"
     pagecolor="#000000"
     id="base"
     inkscape:zoom="3.4522712"
     inkscape:cx="91.591877"
     inkscape:cy="59.497064"
     inkscape:window-x="192"
     inkscape:window-y="122"
     inkscape:current-layer="layer1"
     showgrid="false"
     inkscape:window-maximized="0"
     inkscape:document-units="px" />
  <defs
     id="defs4" />
  <style
     type="text/css"
     id="style26">
	.specularity {opacity:0.5;}
	.low-specularity {opacity:0.25;}
	.full-specularity {opacity:1;}
	.black {fill:#000000;}
	.white {fill:#ffffff;}
	.outline-big {stroke-width:16;stroke:none;opacity:0.1;fill:none;}
	.outline-small {stroke-width:8;stroke:none;opacity:0.2;fill:none;}
	.stroke-highlight {fill:none;stroke:none;opacity:0.2;}
       	.base-shadow 	{fill:black;opacity:75;}
	</style>
  <!-- Copyright License -->
  <metadata
     id="metadata49">
    <rdf:RDF>
      <cc:Work
         rdf:about="etiquette-icon">
        <dc:format>image/svg+xml</dc:format>
        <dc:type
           rdf:resource="http://purl.org/dc/dcmitype/StillImage" />
        <dc:creator>
          <cc:Agent>
            <dc:title>Andy Fitzsimon</dc:title>
          </cc:Agent>
        </dc:creator>
        <dc:rights>
          <cc:Agent>
            <dc:title>Andrew Michael Fitzsimon</dc:title>
          </cc:Agent>
        </dc:rights>
        <dc:publisher>
          <cc:Agent>
            <dc:title>Fitzsimon IT Consulting Pty Ltd</dc:title>
          </cc:Agent>
        </dc:publisher>
        <dc:identifier>http://andy.fitzsimon.com.au</dc:identifier>
        <dc:date>2006</dc:date>
        <cc:license
           rdf:resource="http://creativecommons.org/licenses/by-sa/3.0/" />
        <dc:title>Inkscape Logo</dc:title>
      </cc:Work>
      <cc:License
         rdf:about="http://creativecommons.org/licenses/by-sa/3.0/">
        <cc:permits
           rdf:resource="http://creativecommons.org/ns#Reproduction" />
        <cc:permits
           rdf:resource="http://creativecommons.org/ns#Distribution" />
        <cc:requires
           rdf:resource="http://creativecommons.org/ns#Notice" />
        <cc:requires
           rdf:resource="http://creativecommons.org/ns#Attribution" />
        <cc:permits
           rdf:resource="http://creativecommons.org/ns#DerivativeWorks" />
        <cc:requires
           rdf:resource="http://creativecommons.org/ns#ShareAlike" />
      </cc:License>
    </rdf:RDF>
  </metadata>
  <g
     inkscape:groupmode="layer"
     id="layer1"
     inkscape:label="Inkscape Flat Logo w Transparency">
    <path
       style="fill:#ffffff;fill-opacity:1"
       inkscape:connector-curvature="0"
       id="path2313"
       d="M 63.541016,2.6601562 C 59.678799,2.6524335 55.855582,4.0557665 53.083984,6.8925781 L 6.9726562,54.076172 C -8.6066397,73.369237 17.575145,71.124716 28.798828,76.681641 c 4.02611,4.11535 -15.430407,7.152701 -11.404297,11.271484 4.02611,4.11535 24.343979,7.927618 28.376953,12.042969 4.026111,4.115346 -8.240954,8.482306 -4.214843,12.597656 4.02611,4.11535 13.338413,0.21614 15.082031,9.7168 1.242499,6.78912 16.781705,2.91778 24.380859,-2.64258 4.02611,-4.11878 -7.701891,-3.73231 -3.675781,-7.84766 10.012075,-10.23861 19.334311,-3.71931 22.75977,-13.978513 1.69213,-5.069535 -14.74001,-7.81629 -10.707036,-11.931641 11.584076,-6.7651 51.622886,-11.16813 32.624996,-30.166015 L 74.226562,6.8925781 C 71.303943,4.0866573 67.403233,2.667879 63.541016,2.6601562 Z m 0.414062,4.4902344 c 2.757439,0.014587 5.505643,1.0463069 7.484375,3.0507814 l 18.242188,18.527344 c 1.729888,1.767644 1.706195,5.192658 0.738281,6.177734 l -9.058594,-7.246094 -1.78125,10.730469 -7.568359,-3.996094 -12.119141,7.658203 -4.011719,-16.142578 -6.511718,11.265625 -9.953125,0 c -4.057001,0 -4.533967,-5.149627 -0.847657,-8.835937 6.439031,-6.950446 13.827937,-14.033619 17.84375,-18.138672 2.018204,-2.0628239 4.78553,-3.0653687 7.542969,-3.0507814 z M 42.048828,79.234375 c 1.232203,0.765407 19.869141,4.55153 24.423828,5.306641 1.578867,0.332935 0.459294,1.960251 -1.716797,3.058593 -4.908216,1.304282 -28.713589,-8.365234 -22.707031,-8.365234 z m 72.464842,12.970703 c -3.74981,0.129141 -7.4474,2.044797 -8.46679,5.636719 0,2.340843 17.24804,3.874953 17.24804,-0.552735 -1.22877,-3.555882 -5.03144,-5.213125 -8.78125,-5.083984 z M 34.728516,102.35742 c -5.226622,0.27767 -10.83487,4.05902 -6.375,7.92188 4.084459,3.53185 10.391995,-0.87783 12.283203,-5.80664 -1.236708,-1.64323 -3.532466,-2.24145 -5.908203,-2.11524 z m 69.156254,0.29297 c -5.265182,4.72287 0.58963,9.51422 5.77929,6.46289 1.15669,-1.17385 -0.0302,-5.28904 -5.77929,-6.46289 z" />
  </g>
</svg>
