<?xml version="1.0" encoding="UTF-8" standalone="no"?>
<!-- Created with Inkscape (http://www.inkscape.org/) -->

<svg
   width="43.348225mm"
   height="44.104259mm"
   viewBox="0 0 43.348225 44.10426"
   version="1.1"
   id="svg1"
   xml:space="preserve"
   xmlns:inkscape="http://www.inkscape.org/namespaces/inkscape"
   xmlns:sodipodi="http://sodipodi.sourceforge.net/DTD/sodipodi-0.dtd"
   xmlns="http://www.w3.org/2000/svg"
   xmlns:svg="http://www.w3.org/2000/svg"><sodipodi:namedview
     id="namedview1"
     pagecolor="#000000"
     bordercolor="#000000"
     borderopacity="0.25"
     inkscape:showpageshadow="2"
     inkscape:pageopacity="0.0"
     inkscape:pagecheckerboard="0"
     inkscape:deskcolor="#d1d1d1"
     inkscape:document-units="mm" /><defs
     id="defs1"><style
       id="style1">.cls-1{fill:#dac6a1;}.cls-2{fill:#fff;}</style></defs><g
     inkscape:label="Layer 1"
     inkscape:groupmode="layer"
     id="layer1"
     transform="translate(-14.994996,-124.94792)"><g
       id="g1"
       transform="matrix(1.6281723,0,0,1.6281723,7.6582175,117.81917)"><path
         class="cls-1"
         d="m 33.65,23.53 a 7.88,7.88 0 0 0 -0.6,-2.5 0.28,0.28 0 0 0 -0.22,-0.09 0.17,0.17 0 0 0 -0.13,0 v 0.09 A 8.69,8.69 0 0 1 33.25,23.34 3.81,3.81 0 0 1 33,25 a 5.07,5.07 0 0 0 0,1.23 c 0,0.17 -0.09,0.24 -0.16,0.24 -0.07,0 -0.15,-0.06 -0.16,-0.25 0,-0.47 0,-0.87 -0.06,-1.22 v 0 A 7.88,7.88 0 0 0 32.45,23.3 3.57,3.57 0 0 0 31.67,22 3.5,3.5 0 0 1 31.23,21 c 0,-0.07 0,-0.14 -0.06,-0.23 -0.06,-0.09 -0.05,-0.19 -0.08,-0.27 L 30.93,20 a 0.13,0.13 0 0 0 -0.11,-0.05 0.29,0.29 0 0 0 -0.22,0.12 0.24,0.24 0 0 0 0,0.16 l 0.4,1.54 a 2.89,2.89 0 0 0 0.54,0.78 v 0 a 4.1,4.1 0 0 1 0.34,0.41 1.26,1.26 0 0 1 0.26,0.71 c 0.07,0.52 0.13,1.26 0.19,2.32 l 0.3,1.53 a 5,5 0 0 1 -0.07,1.7 c 0,0.23 0,0.3 0,0.32 v 0 c 0,0 0.11,0 0.27,-0.17 0.42,-0.52 0.4,-2.27 0.38,-3.68 a 6.53,6.53 0 0 1 0.2,-1.14 3.49,3.49 0 0 0 0.15,-1"
         transform="translate(-2.52,-6.68)"
         id="path1" /><path
         class="cls-1"
         d="m 32.12,21.23 v -0.27 a 0.34,0.34 0 0 0 -0.05,-0.14 0.5,0.5 0 0 0 -0.3,-0.24 h -0.13 c 0,0 0,0 0,0.06 a 2.4,2.4 0 0 0 0.72,1.44 h 0.06 c 0,0 0,-0.05 0,-0.15 l -0.19,-0.46 a 0.81,0.81 0 0 1 -0.08,-0.25"
         transform="translate(-2.52,-6.68)"
         id="path2" /><path
         class="cls-1"
         d="m 30.25,25.31 v 0 c -0.07,0 -0.14,-0.08 -0.17,-0.18 A 4.16,4.16 0 0 1 29.71,23.8 c 0,-0.19 -0.08,-0.38 -0.14,-0.57 a 1.47,1.47 0 0 0 -0.48,-0.84 4.19,4.19 0 0 1 -1.26,-1.67 c -0.07,-0.15 -0.16,-0.25 -0.22,-0.25 -0.06,0 -0.06,0 -0.09,0.06 a 0.38,0.38 0 0 0 0,0.32 4.15,4.15 0 0 0 0.55,1 1.79,1.79 0 0 0 0.23,0.24 h 0.05 a 4.61,4.61 0 0 1 0.77,0.75 1.89,1.89 0 0 1 0.27,0.82 1.25,1.25 0 0 0 0,0.19 v 0 a 7.46,7.46 0 0 0 0.77,2.15 3,3 0 0 1 0.21,0.7 l 0.14,0.91 c 0,0.24 0.11,0.3 0.15,0.3 h 0.05 A 0.42,0.42 0 0 0 30.77,27.66 18,18 0 0 0 30.64,24.96 5.62,5.62 0 0 0 30,22.87 c -0.07,-0.09 -0.14,-0.15 -0.22,-0.15 v 0 c 0,0 0,0.07 0,0.18 a 6.49,6.49 0 0 1 0.51,2.16 0.29,0.29 0 0 1 -0.05,0.22 z"
         transform="translate(-2.52,-6.68)"
         id="path3" /><path
         class="cls-1"
         d="m 28.58,20.66 a 0.17,0.17 0 0 0 -0.19,-0.13 0.14,0.14 0 0 0 -0.12,0 v 0 a 2.27,2.27 0 0 0 0.66,1.12 h 0.08 v 0 c 0,0 0,-0.05 0,-0.11 a 2.61,2.61 0 0 1 -0.43,-1"
         transform="translate(-2.52,-6.68)"
         id="path4" /><path
         class="cls-1"
         d="m 31.51,25.39 v 0 c 0,0 -0.1,0 -0.16,-0.15 a 0.51,0.51 0 0 1 -0.06,-0.2 L 31,23.47 a 2.63,2.63 0 0 0 -0.58,-1.2 5.49,5.49 0 0 1 -1.13,-1.93 c -0.06,-0.22 -0.14,-0.27 -0.17,-0.27 -0.03,0 -0.09,0.06 -0.1,0.18 a 0.42,0.42 0 0 0 0,0.25 4,4 0 0 0 1,1.8 1.48,1.48 0 0 1 0.52,0.95 v 0 c 0,0.19 0.08,0.37 0.11,0.56 v 0 a 12.87,12.87 0 0 0 0.65,2.44 2.17,2.17 0 0 1 0.18,0.72 c 0,0.58 0.06,0.94 0.1,1.23 0.04,0.29 0.1,0.34 0.15,0.34 0.05,0 0.11,-0.08 0.14,-0.29 a 13.74,13.74 0 0 0 0,-3 10.37,10.37 0 0 0 -0.2,-1.6 1.56,1.56 0 0 0 -0.29,-0.64 c -0.1,-0.12 -0.15,-0.15 -0.17,-0.15 a 0.5,0.5 0 0 0 0,0.16 13,13 0 0 1 0.35,2 0.31,0.31 0 0 1 -0.06,0.25 z"
         transform="translate(-2.52,-6.68)"
         id="path5" /><path
         class="cls-1"
         d="m 30.51,21.6 a 2.94,2.94 0 0 1 -0.3,-0.69 l -0.07,-0.39 a 0.41,0.41 0 0 0 -0.09,-0.2 0.35,0.35 0 0 0 -0.24,-0.12 0.11,0.11 0 0 0 -0.08,0 0.13,0.13 0 0 0 0,0.11 2.69,2.69 0 0 0 0.75,1.47 v 0 l 0.09,0.05 v 0 c 0,0 0,0 0,-0.09 A 0.41,0.41 0 0 0 30.5,21.57"
         transform="translate(-2.52,-6.68)"
         id="path6" /><path
         class="cls-1"
         d="m 28.82,25.29 v 0 c 0,0.1 0.07,0.19 0.1,0.29 a 0.63,0.63 0 0 0 0.12,0.23 c 0,0 0.08,0.07 0.11,0.06 0.03,-0.01 0.08,-0.06 0.09,-0.09 a 0.55,0.55 0 0 0 0,-0.23 5,5 0 0 0 -0.69,-2.89 c -0.09,-0.09 -0.13,-0.09 -0.13,-0.09 0,0 0,0 0,0.07 a 0.27,0.27 0 0 0 0,0.16 2.82,2.82 0 0 1 0.25,0.72 0.24,0.24 0 0 1 0,0.21 v 0 0 c -0.06,0 -0.12,-0.06 -0.17,-0.17 a 1.89,1.89 0 0 0 -0.82,-1 5.59,5.59 0 0 1 -1.19,-0.92 3,3 0 0 1 -0.31,-0.49 c 0,0 0,-0.07 -0.08,-0.08 -0.08,-0.01 -0.15,0.1 -0.17,0.21 -0.02,0.11 0,0.08 0,0.14 a 2.45,2.45 0 0 0 1,1.05 2.78,2.78 0 0 1 1.4,1.34 c 0.26,0.62 0.41,1.1 0.51,1.41"
         transform="translate(-2.52,-6.68)"
         id="path7" /><path
         class="cls-1"
         d="m 26.71,20.93 c -0.08,0 -0.14,0 -0.15,0.07 v 0 a 2.12,2.12 0 0 0 0.79,0.81 h 0.08 v 0 c 0,0 0,0 -0.05,-0.09 a 2.4,2.4 0 0 1 -0.54,-0.75 0.19,0.19 0 0 0 -0.16,-0.08"
         transform="translate(-2.52,-6.68)"
         id="path8" /><path
         class="cls-1"
         d="m 25.28,22.53 v 0 a 4.45,4.45 0 0 1 0.46,0.18 1.27,1.27 0 0 1 0.41,0.27 A 7.57,7.57 0 0 1 27,24 v 0 c 0.2,0.28 0.41,0.56 0.65,0.84 a 0.16,0.16 0 0 0 0.13,0.06 0.11,0.11 0 0 0 0.08,0 0.19,0.19 0 0 0 0,-0.15 8.72,8.72 0 0 0 -0.7,-1.68 0.33,0.33 0 0 0 -0.31,-0.15 v 0 0 l 0.16,0.3 v 0.07 0 a 0.1,0.1 0 0 1 -0.08,0 v 0 h -0.07 v 0 0 A 3.26,3.26 0 0 0 26.42,22.77 0.85,0.85 0 0 0 26.17,22.6 L 25.59,22.37 A 2.81,2.81 0 0 1 25.16,22.11 C 25.02,21.99 24.87,21.86 24.71,21.7 h -0.1 a 0.08,0.08 0 0 0 -0.07,0 0.23,0.23 0 0 0 0,0.21 1.19,1.19 0 0 0 0.45,0.44 1.36,1.36 0 0 0 0.27,0.12"
         transform="translate(-2.52,-6.68)"
         id="path9" /><path
         class="cls-1"
         d="m 31.06,28.79 c -0.42,-0.26 -0.71,-0.45 -0.95,-0.62 -1.62,-1.23 -3.27,-2.42 -5,-3.63 a 0.14,0.14 0 0 0 -0.1,0 c 0,0 0,0 0,0 a 0.32,0.32 0 0 0 0.16,0.31 l 5.25,3.85 h 0.06 a 0.38,0.38 0 0 1 0.19,0.16 c 0,0 0.06,0.14 -0.09,0.25 a 1.07,1.07 0 0 1 -0.51,0.13 1.43,1.43 0 0 1 -0.9,-0.34 c -1.4,-1.1 -2.79,-2.22 -4.08,-3.26 a 0.16,0.16 0 0 0 -0.1,0 v 0 a 0.24,0.24 0 0 0 0,0.2 0.38,0.38 0 0 0 0.14,0.19 c 1.36,1.1 2.72,2.21 4,3.3 a 1.68,1.68 0 0 0 0.89,0.24 1.86,1.86 0 0 0 1.11,-0.45 0.23,0.23 0 0 0 -0.05,-0.33"
         transform="translate(-2.52,-6.68)"
         id="path10" /><path
         class="cls-1"
         d="m 29.1,28.52 a 3.79,3.79 0 0 0 0.6,0.37 h 0.12 c 0,0 0.06,0 0.06,0 0,0 0,-0.07 -0.07,-0.13 l -4.69,-3.63 h -0.07 v 0 a 0.31,0.31 0 0 0 0.14,0.26 z"
         transform="translate(-2.52,-6.68)"
         id="path11" /><path
         class="cls-1"
         d="m 28,28.73 -3.05,-2.56 a 0.16,0.16 0 0 0 -0.09,0 v 0 c 0,0 0,0.09 0.09,0.18 0.88,0.81 1.85,1.65 2.85,2.5 a 2.32,2.32 0 0 0 0.41,0.31 0.28,0.28 0 0 0 0.17,0.05 c 0.06,0 0.1,0 0.11,-0.06 0.01,-0.06 0,0 0,-0.05 z"
         transform="translate(-2.52,-6.68)"
         id="path12" /><path
         class="cls-1"
         d="m 25.61,22.07 h 0.1 a 0.18,0.18 0 0 0 0,-0.06 0.67,0.67 0 0 0 -0.13,-0.2 0.6,0.6 0 0 0 -0.23,-0.16 h -0.17 c 0,0 -0.05,0 -0.06,0 v 0.06 a 1.48,1.48 0 0 0 0.49,0.37"
         transform="translate(-2.52,-6.68)"
         id="path13" /><path
         class="cls-1"
         d="m 28.53,29.85 a 0.85,0.85 0 0 0 0.45,-0.14 c 0,0 0.06,-0.06 0.05,-0.09 -0.01,-0.03 0,-0.06 -0.08,-0.08 h -0.07 -0.09 -0.05 -0.2 a 1,1 0 0 1 -0.7,-0.26 c -0.75,-0.63 -1.33,-1.17 -1.85,-1.64 v 0 c -0.39,-0.36 -0.76,-0.7 -1.16,-1 0,0 -0.05,0 -0.07,0 v 0 a 0.17,0.17 0 0 0 0,0.1 0.35,0.35 0 0 0 0.09,0.11 l 0.18,0.19 c 0.92,0.86 1.75,1.64 2.6,2.4 a 2,2 0 0 0 0.61,0.44 1.81,1.81 0 0 0 0.38,0.05"
         transform="translate(-2.52,-6.68)"
         id="path14" /><path
         class="cls-1"
         d="m 24.4,26.89 c 0.67,0.73 1.38,1.45 2.17,2.2 a 1.06,1.06 0 0 0 0.54,0.32 v 0 a 0.17,0.17 0 0 0 -0.06,-0.07 c -0.7,-0.59 -1.44,-1.33 -2.07,-2 a 1.59,1.59 0 0 1 -0.13,-0.13 v -0.05 a 2.92,2.92 0 0 0 -0.4,-0.38 h -0.07 a 0.11,0.11 0 0 0 0,0.09"
         transform="translate(-2.52,-6.68)"
         id="path15" /><path
         class="cls-1"
         d="m 27.43,30 a 0.52,0.52 0 0 0 0.18,0 0.05,0.05 0 0 0 0,-0.06 0.14,0.14 0 0 0 -0.14,-0.1 1.42,1.42 0 0 1 -0.87,-0.34 c -0.81,-0.74 -1.61,-1.52 -2.37,-2.31 a 0.1,0.1 0 0 0 -0.08,-0.05 v 0 a 0.39,0.39 0 0 0 0,0.23 0.92,0.92 0 0 0 0.11,0.14 v 0 c 0.44,0.46 1,1.05 1.79,1.79 a 2.68,2.68 0 0 0 0.72,0.56 1.38,1.38 0 0 0 0.57,0.15"
         transform="translate(-2.52,-6.68)"
         id="path16" /><path
         class="cls-1"
         d="m 26.28,29.72 c 0,0 0,0 0,0 A 0.18,0.18 0 0 0 26.13,29.57 C 25.76,29.51 25.27,28.96 24.76,28.38 L 24.54,28 h -0.05 v 0.05 a 0.1,0.1 0 0 0 0,0.09 l 1.08,1.25 a 1,1 0 0 0 0.74,0.33 z"
         transform="translate(-2.52,-6.68)"
         id="path17" /><path
         class="cls-1"
         d="m 12.68,16.41 v 0 a 0.4,0.4 0 0 1 0.15,0 0.38,0.38 0 0 1 0.16,0 0.2,0.2 0 0 0 0.1,0 0.25,0.25 0 0 0 0.12,0 1.15,1.15 0 0 1 0.4,-0.32 0.76,0.76 0 0 1 0.21,0 0.7,0.7 0 0 1 0.43,0.16 0.17,0.17 0 0 1 0.05,0.17 c 0,0.05 -0.07,0.08 -0.16,0.09 H 14 a 1.77,1.77 0 0 0 -0.43,0.06 0.71,0.71 0 0 0 -0.56,0.79 v 0 c 0,0.07 0,0.26 -0.15,0.26 a 0.32,0.32 0 0 1 -0.19,-0.1 0.79,0.79 0 0 1 -0.27,-0.56 0.73,0.73 0 0 1 0.3,-0.51 m -0.48,0.34 a 0.62,0.62 0 0 0 -0.06,0.54 1.18,1.18 0 0 0 1.15,0.77 v 0 c 0.14,0 0.24,0 0.26,-0.1 0.02,-0.1 0,-0.12 -0.07,-0.15 a 0.69,0.69 0 0 1 -0.28,-0.74 0.75,0.75 0 0 1 0.73,-0.44 0.81,0.81 0 0 1 0.22,0 0.8,0.8 0 0 0 0.43,-0.12 0.91,0.91 0 0 1 0.6,-0.27 0.72,0.72 0 0 1 0.28,0.05 v 0 a 0.19,0.19 0 0 1 0,0.3 0.37,0.37 0 0 1 -0.25,0.12 1.26,1.26 0 0 0 -0.48,0.22 0.17,0.17 0 0 0 0,0.07 c 0,0 0,0 0.13,0 h 0.17 0.17 a 3.52,3.52 0 0 0 0.91,-0.58 c 0.09,-0.08 0.1,-0.14 0,-0.25 a 1.16,1.16 0 0 0 -0.8,-0.34 1.92,1.92 0 0 0 -0.32,0 1.85,1.85 0 0 1 -0.44,0.06 0.78,0.78 0 0 1 -0.31,0 l -0.64,-0.19 a 0.83,0.83 0 0 0 -0.29,-0.06 0.37,0.37 0 0 0 -0.25,0.1 v 0 l 0.07,0.05 c 0.06,0.06 0.08,0.11 0.06,0.16 -0.02,0.05 -0.11,0.09 -0.19,0.1 h -0.15 a 0.24,0.24 0 0 0 -0.19,0.07 2.32,2.32 0 0 0 -0.43,0.54"
         transform="translate(-2.52,-6.68)"
         id="path18" /><path
         class="cls-1"
         d="m 13.34,15.34 a 1.81,1.81 0 0 0 0.45,0.18 h 0.05 a 0.15,0.15 0 0 0 0.12,-0.07 0.91,0.91 0 0 0 0.16,-0.39 1.2,1.2 0 0 1 0.27,-0.54 l 0.07,-0.07 a 0.77,0.77 0 0 0 0.18,-0.32 0.49,0.49 0 0 0 -0.16,-0.57 v 0.11 a 1.31,1.31 0 0 1 -0.59,0.93 l -0.14,0.09 a 2.43,2.43 0 0 0 -0.35,0.29 0.38,0.38 0 0 0 -0.15,0.25 0.17,0.17 0 0 0 0.08,0.11"
         transform="translate(-2.52,-6.68)"
         id="path19" /><path
         class="cls-1"
         d="m 14.46,14.75 c -0.05,0 -0.08,0 -0.06,0.06 0.22,0.38 0.12,0.52 -0.2,0.67 -0.12,0 -0.06,0.15 0.05,0.13 a 0.13,0.13 0 0 0 0.1,0 0.48,0.48 0 0 0 0.28,-0.72 c -0.05,-0.1 -0.13,-0.13 -0.17,-0.12"
         transform="translate(-2.52,-6.68)"
         id="path20" /><path
         class="cls-1"
         d="m 14.94,14 c 0.06,0 0.09,-0.1 0.11,-0.18 0.02,-0.08 0,-0.3 0.13,-0.32 0.13,-0.02 0.07,0.14 0.11,0.16 0.04,0.02 0.07,0 0.09,-0.07 a 0.65,0.65 0 0 0 -0.22,-0.52 v 0 c 0,0 0,0 0,0.06 a 2.91,2.91 0 0 0 -0.17,0.81 c 0,0.06 0,0.08 0,0.08"
         transform="translate(-2.52,-6.68)"
         id="path21" /><path
         class="cls-1"
         d="m 14.91,14.57 v 0 c 0.87,-0.4 1.05,-0.92 1.08,-1.19 A 0.76,0.76 0 0 0 15.78,12.7 v 0 a 1.23,1.23 0 0 1 -0.23,1.13 c -0.19,0.16 -0.41,0.33 -0.64,0.5 l -0.1,0.07 c 0,0 -0.05,0.06 0,0.09 a 0.13,0.13 0 0 0 0.13,0.09"
         transform="translate(-2.52,-6.68)"
         id="path22" /><path
         class="cls-1"
         d="m 16,14.61 a 2.63,2.63 0 0 1 -0.67,0.39 0.85,0.85 0 0 0 -0.34,0.23 0.12,0.12 0 0 0 0,0.06 H 15 a 4.4,4.4 0 0 0 1.23,-0.67 c 0.25,-0.21 0.33,-0.42 0.22,-0.63 0,0 -0.05,0 -0.07,0 a 0.14,0.14 0 0 0 -0.09,0 c -0.21,0.2 -1.07,0.65 -1.23,0.77 -0.16,0.12 -0.07,0.08 -0.07,0.09 a 0.05,0.05 0 0 0 0.08,0 c 0.13,0 0.7,-0.39 0.84,-0.46 0.14,-0.07 0.22,-0.06 0.23,0 0.01,0.06 -0.05,0.13 -0.15,0.2"
         transform="translate(-2.52,-6.68)"
         id="path23" /><path
         class="cls-1"
         d="m 14.79,15.79 a 1,1 0 0 0 0.28,-0.07 6.76,6.76 0 0 1 1.2,-0.51 c 0.05,0 0.11,0 0.13,0 a 0.17,0.17 0 0 1 0,0.29 l -0.52,0.23 c 0,0 0,0 0,0 0,0 0,0 0.17,0 v 0 c 0.52,-0.12 0.72,-0.32 0.65,-0.62 A 0.27,0.27 0 0 0 16.44,14.95 0.82,0.82 0 0 0 16,15.02 c -0.26,0.11 -0.64,0.32 -0.88,0.41 a 1.68,1.68 0 0 0 -0.3,0.15 c 0,0 -0.21,0.17 0,0.14"
         transform="translate(-2.52,-6.68)"
         id="path24" /><path
         class="cls-1"
         d="m 16.41,13.48 c 0.15,-0.12 0.29,-0.47 0.39,-0.29 a 0.64,0.64 0 0 1 -0.1,0.53 c -0.06,0.1 0,0.15 0.07,0.19 v 0 c 0,0 0,0 0.05,0 a 1.08,1.08 0 0 0 0.15,-0.79 0.62,0.62 0 0 0 -0.22,-0.4 h -0.07 a 0.09,0.09 0 0 0 -0.08,0.06 l -0.08,0.3 a 0.69,0.69 0 0 1 -0.16,0.29 0.33,0.33 0 0 0 -0.12,0.22 c 0,0.08 0,0 0.14,0"
         transform="translate(-2.52,-6.68)"
         id="path25" /><path
         class="cls-1"
         d="m 17.21,13.87 a 2.82,2.82 0 0 1 0.75,0.32 0.8,0.8 0 0 0 0.16,0.08 5.45,5.45 0 0 0 0.64,0.32 h 0.07 c 0,0 0.06,0 0.09,-0.06 v 0 a 1.16,1.16 0 0 0 0.32,-0.63 v 0 0 a 0.64,0.64 0 0 1 -0.24,0 0.74,0.74 0 0 1 -0.29,0 3.16,3.16 0 0 0 -1.32,-0.43 h -0.06 v 0 0 0.05 0 a 4.17,4.17 0 0 1 1.39,0.55 v 0 c 0,0 0.12,0.07 0.12,0.12 v 0 a 0.15,0.15 0 0 1 -0.12,0 h -0.06 -0.07 a 8.39,8.39 0 0 0 -1.32,-0.52 v 0 a 0.08,0.08 0 0 0 -0.07,0 0.19,0.19 0 0 0 0.05,0.1"
         transform="translate(-2.52,-6.68)"
         id="path26" /><path
         class="cls-1"
         d="m 16.67,16.27 c -0.06,0 -0.16,-0.16 -0.21,-0.27 v 0 h -0.05 a 0.13,0.13 0 0 0 0,0.09 0.69,0.69 0 0 0 0.24,0.4 0.33,0.33 0 0 0 0.13,0 0.25,0.25 0 0 0 0.22,-0.2 0.62,0.62 0 0 0 -0.25,-0.51 v 0 a 0.92,0.92 0 0 1 0.09,0.37 c 0,0.07 -0.07,0.06 -0.1,0.06"
         transform="translate(-2.52,-6.68)"
         id="path27" /><path
         class="cls-1"
         d="m 17.37,15.91 c -0.12,0 -0.28,-0.29 -0.33,-0.38 h -0.06 v 0 a 0.54,0.54 0 0 0 0,0.11 1,1 0 0 0 0.27,0.53 0.22,0.22 0 0 0 0.17,0.05 0.68,0.68 0 0 0 0.44,-0.28 0.28,0.28 0 0 0 0,-0.32 2.36,2.36 0 0 0 -0.92,-0.61 v 0 a 2.49,2.49 0 0 0 0.31,0.23 v 0 a 1.55,1.55 0 0 1 0.39,0.32 0.24,0.24 0 0 1 0,0.2 0.33,0.33 0 0 1 -0.21,0.16"
         transform="translate(-2.52,-6.68)"
         id="path28" /><path
         class="cls-1"
         d="m 16.8,14.63 v 0 a 7.44,7.44 0 0 0 1.33,0.76 0.45,0.45 0 0 0 0.17,0.05 0.23,0.23 0 0 0 0.16,-0.08 0.38,0.38 0 0 0 0.09,-0.47 A 2.89,2.89 0 0 0 17,14.06 v 0 0 a 0.1,0.1 0 0 0 0.08,0.05 3.71,3.71 0 0 1 1.07,0.59 v 0 c 0.07,0.06 0.15,0.12 0.12,0.22 a 0.31,0.31 0 0 1 -0.11,0.15 H 18.1 a 1,1 0 0 1 -0.38,-0.15 h -0.07 v 0 a 4,4 0 0 0 -0.81,-0.35 z"
         transform="translate(-2.52,-6.68)"
         id="path29" /><path
         class="cls-1"
         d="m 27.89,13.76 c 0,0 0,0.08 0.08,0.14 a 14.24,14.24 0 0 1 4.5,5.86 0.27,0.27 0 0 1 0,0.23 0.17,0.17 0 0 1 -0.12,0.05 0.85,0.85 0 0 1 -0.35,-0.14 4.12,4.12 0 0 1 -1.07,-1.06 16.69,16.69 0 0 0 -4.21,-4.48 0.19,0.19 0 0 0 -0.1,0 v 0 a 0.31,0.31 0 0 0 0.11,0.28 17.74,17.74 0 0 1 4.27,4.85 2.51,2.51 0 0 0 2.2,1.1 h 0.27 c 0.15,0 0.17,-0.08 0.17,-0.08 0,0 0,-0.05 -0.08,-0.1 a 2.38,2.38 0 0 1 -0.85,-1.19 13.8,13.8 0 0 0 -4.56,-5.44 0.27,0.27 0 0 0 -0.14,0 c 0,0 -0.06,0 -0.07,0"
         transform="translate(-2.52,-6.68)"
         id="path30" /><path
         class="cls-1"
         d="m 31.69,19.44 a 0.37,0.37 0 0 0 0.21,0.1 0.06,0.06 0 0 0 0.06,0 0.4,0.4 0 0 0 -0.06,-0.31 15.45,15.45 0 0 0 -4.48,-5.08 0.48,0.48 0 0 0 -0.2,0 0.19,0.19 0 0 0 -0.12,0 c 0,0 0,0.06 0.15,0.14 a 18.83,18.83 0 0 1 4.44,5.19"
         transform="translate(-2.52,-6.68)"
         id="path31" /><path
         class="cls-1"
         d="m 29.85,19.43 a 0.45,0.45 0 0 1 -0.3,-0.2 17.59,17.59 0 0 0 -3,-3.25 v 0 0 a 0.49,0.49 0 0 0 0,0.39 17.55,17.55 0 0 1 2.05,2.14 v 0 a 12.48,12.48 0 0 0 1.12,1.21 0.84,0.84 0 0 0 0.42,0.12 0.4,0.4 0 0 0 0.32,-0.14 0.37,0.37 0 0 0 0,-0.31 12.5,12.5 0 0 0 -3.79,-4.24 c 0,0 -0.06,0 -0.08,0 v 0 a 0.45,0.45 0 0 0 0.13,0.38 19,19 0 0 1 3.22,3.57 0.31,0.31 0 0 1 0,0.27 0.14,0.14 0 0 1 -0.12,0.06"
         transform="translate(-2.52,-6.68)"
         id="path32" /><path
         class="cls-1"
         d="m 26.25,16.74 v 0 a 0.24,0.24 0 0 0 0,0.22 15.62,15.62 0 0 1 2.16,2.32 0.29,0.29 0 0 1 0.05,0.34 0.35,0.35 0 0 1 -0.56,0.09 c -0.5,-0.43 -1,-0.92 -1.42,-1.39 -0.19,-0.21 -0.4,-0.43 -0.59,-0.62 h -0.05 v 0 a 0.25,0.25 0 0 0 0,0.24 l 1.46,1.57 a 2.1,2.1 0 0 0 0.72,0.54 h 0.33 a 0.53,0.53 0 0 0 0.45,-0.18 0.59,0.59 0 0 0 0,-0.53 9.11,9.11 0 0 0 -2.5,-2.66 z"
         transform="translate(-2.52,-6.68)"
         id="path33" /><path
         class="cls-1"
         d="m 25.87,17.12 a 0.19,0.19 0 0 0 0,0.16 23.07,23.07 0 0 0 2.06,2 h 0.05 v 0 c 0,0 0,-0.05 0,-0.09 a 13.09,13.09 0 0 0 -2.1,-2.11 z"
         transform="translate(-2.52,-6.68)"
         id="path34" /><path
         class="cls-1"
         d="m 25.65,18.28 a 0.19,0.19 0 0 0 -0.1,0 0.11,0.11 0 0 0 -0.09,0.06 0.17,0.17 0 0 0 0.05,0.16 6,6 0 0 1 1.24,1.34 0.29,0.29 0 0 1 0,0.32 0.33,0.33 0 0 1 -0.29,0.15 0.6,0.6 0 0 1 -0.28,-0.08 7.49,7.49 0 0 1 -1.19,-1 l -0.08,-0.08 c 0,0 0,0 -0.06,0.06 a 0.19,0.19 0 0 0 0,0.19 5.14,5.14 0 0 0 1.32,1.21 2.32,2.32 0 0 0 0.48,0.06 0.51,0.51 0 0 0 0.41,-0.15 0.71,0.71 0 0 0 0,-0.59 7,7 0 0 0 -1.45,-1.6"
         transform="translate(-2.52,-6.68)"
         id="path35" /><path
         class="cls-1"
         d="M 25.11,18.83 26.3,20 h 0.09 0.06 v 0 a 4.77,4.77 0 0 0 -1.39,-1.34 0.28,0.28 0 0 0 0.05,0.25"
         transform="translate(-2.52,-6.68)"
         id="path36" /><path
         class="cls-1"
         d="m 25,21.32 a 0.77,0.77 0 0 0 0.6,-0.32 0.42,0.42 0 0 0 0,-0.41 5.75,5.75 0 0 0 -1,-1.09 v 0 c 0,0 -0.05,0 -0.07,0.05 a 0.11,0.11 0 0 0 0,0.11 4.21,4.21 0 0 1 0.74,0.86 0.38,0.38 0 0 1 0,0.33 0.41,0.41 0 0 1 -0.33,0.16 A 0.46,0.46 0 0 1 24.7,21 5,5 0 0 1 23.97,20.31 v 0 c 0,0 -0.05,0 -0.07,0.05 a 0.17,0.17 0 0 0 0,0.14 2.69,2.69 0 0 0 0.92,0.82 0.86,0.86 0 0 0 0.24,0"
         transform="translate(-2.52,-6.68)"
         id="path37" /><path
         class="cls-1"
         d="m 24.67,20.58 a 0.26,0.26 0 0 0 0.13,0.05 0.14,0.14 0 0 0 0.12,-0.07 0.17,0.17 0 0 0 -0.05,-0.17 3,3 0 0 0 -0.61,-0.57 h -0.09 a 0.11,0.11 0 0 0 -0.11,0.11 c 0,0.05 0,0.1 0.1,0.16 0.2,0.22 0.34,0.35 0.51,0.52"
         transform="translate(-2.52,-6.68)"
         id="path38" /><path
         class="cls-1"
         d="m 24.18,21.28 -0.57,-0.65 h -0.05 a 0.12,0.12 0 0 0 -0.08,0 0.17,0.17 0 0 0 0,0.14 l 0.36,0.41 a 0.23,0.23 0 0 1 0.08,0.19 c 0,0.13 -0.12,0.24 -0.24,0.34 v 0 a 0.7,0.7 0 0 0 -0.19,0.2 0.12,0.12 0 0 0 0,0.13 0.08,0.08 0 0 0 0.08,0.05 h 0.06 l 0.47,-0.4 a 0.31,0.31 0 0 0 0.07,-0.43"
         transform="translate(-2.52,-6.68)"
         id="path39" /><path
         class="cls-1"
         d="m 23.44,21.5 v 0 h 0.06 a 0.08,0.08 0 0 0 0,-0.08 l -0.29,-0.5 h -0.06 a 0.13,0.13 0 0 0 -0.09,0.06 V 21 Z"
         transform="translate(-2.52,-6.68)"
         id="path40" /><path
         class="cls-1"
         d="m 23.52,13.15 a 0.7,0.7 0 0 0 0.25,0.24 8.46,8.46 0 0 1 2.12,1.1 0.22,0.22 0 0 1 0.06,0.25 0.2,0.2 0 0 1 -0.19,0.12 0.37,0.37 0 0 1 -0.2,-0.06 6.41,6.41 0 0 0 -1.73,-0.92 v 0 a 0.16,0.16 0 0 0 0.11,0.17 9.11,9.11 0 0 1 1.85,1.09 0.42,0.42 0 0 0 0.25,0.09 0.25,0.25 0 0 0 0.21,-0.13 c 0.13,-0.36 0,-0.69 -0.5,-1 a 10,10 0 0 0 -2.19,-1 z"
         transform="translate(-2.52,-6.68)"
         id="path41" /><path
         class="cls-1"
         d="m 24,14.43 v 0 a 0.21,0.21 0 0 0 0.08,0.2 c 0.14,0.1 0.35,0.22 0.6,0.36 a 3.48,3.48 0 0 1 1.06,0.75 0.44,0.44 0 0 1 0,0.43 0.28,0.28 0 0 1 -0.22,0.15 0.32,0.32 0 0 1 -0.18,-0.06 l -1.07,-0.61 v 0 a 0.48,0.48 0 0 0 0.16,0.35 6,6 0 0 0 0.77,0.53 h 0.07 a 1.06,1.06 0 0 0 0.42,0.17 0.31,0.31 0 0 0 0.17,-0.05 0.93,0.93 0 0 0 0.17,-0.95 7.45,7.45 0 0 0 -2,-1.32"
         transform="translate(-2.52,-6.68)"
         id="path42" /><path
         class="cls-1"
         d="m 25.22,16 h 0.07 c 0.07,0 0.15,0 0.13,-0.06 a 6.74,6.74 0 0 0 -1.3,-0.8 0.26,0.26 0 0 0 0.05,0.12 5.6,5.6 0 0 0 1,0.72"
         transform="translate(-2.52,-6.68)"
         id="path43" /><path
         class="cls-1"
         d="m 24.2,17.6 0.65,0.47 a 0.35,0.35 0 0 0 0.2,0.07 0.25,0.25 0 0 0 0.16,-0.06 1,1 0 0 0 0.3,-0.41 0.51,0.51 0 0 0 -0.21,-0.62 l -0.88,-0.64 v 0 0 a 0.23,0.23 0 0 0 0,0.2 4.65,4.65 0 0 1 0.67,0.59 0.37,0.37 0 0 1 0.06,0.37 0.21,0.21 0 0 1 -0.19,0.14 0.23,0.23 0 0 1 -0.17,-0.07 l -0.52,-0.32 a 0.12,0.12 0 0 0 -0.07,0.07 0.21,0.21 0 0 0 0,0.2"
         transform="translate(-2.52,-6.68)"
         id="path44" /><path
         class="cls-1"
         d="m 24.72,17.37 a 0.11,0.11 0 0 0 0.1,-0.07 0.1,0.1 0 0 0 0,-0.12 L 24.4,16.94 h -0.06 v 0.09 l 0.37,0.3 z"
         transform="translate(-2.52,-6.68)"
         id="path45" /><path
         class="cls-1"
         d="m 23.39,18.78 a 0.15,0.15 0 0 0 0,0.16 l 0.64,0.48 a 0.24,0.24 0 0 0 0.13,0 0.44,0.44 0 0 0 0.27,-0.14 l 0.08,-0.13 c 0.17,-0.28 0.3,-0.47 0.1,-0.76 a 1.71,1.71 0 0 0 -0.64,-0.54 c 0,0 0,0 -0.06,0.05 a 0.25,0.25 0 0 0 0,0.21 l 0.33,0.35 a 0.34,0.34 0 0 1 0,0.35 A 0.31,0.31 0 0 1 24,19 0.24,0.24 0 0 1 23.85,19 l -0.36,-0.27 h -0.05 c 0,0 -0.07,0 -0.09,0.09"
         transform="translate(-2.52,-6.68)"
         id="path46" /><path
         class="cls-1"
         d="m 23.65,18.38 a 0.12,0.12 0 0 0 0,0.12 l 0.23,0.17 h 0.06 A 0.06,0.06 0 0 0 24,18.61 0.11,0.11 0 0 0 24,18.48 l -0.22,-0.17 v 0 a 0.13,0.13 0 0 0 -0.1,0.06"
         transform="translate(-2.52,-6.68)"
         id="path47" /><path
         class="cls-1"
         d="m 22.46,19.65 a 0.08,0.08 0 0 0 -0.07,0.05 0.19,0.19 0 0 0 0,0.18 l 0.49,0.57 a 0.26,0.26 0 0 0 0.19,0.08 0.84,0.84 0 0 0 0.57,-0.44 0.52,0.52 0 0 0 0.05,-0.49 3.47,3.47 0 0 0 -0.51,-0.62 v 0 c 0,0 0,0 -0.07,0.06 a 0.22,0.22 0 0 0 0,0.22 l 0.22,0.3 a 0.4,0.4 0 0 1 0,0.38 0.33,0.33 0 0 1 -0.25,0.17 0.34,0.34 0 0 1 -0.2,-0.08 l -0.3,-0.33 z"
         transform="translate(-2.52,-6.68)"
         id="path48" /><path
         class="cls-1"
         d="m 23,19.82 a 0.11,0.11 0 0 0 0.09,-0.06 0.12,0.12 0 0 0 0,-0.1 l -0.26,-0.25 v 0 a 0.08,0.08 0 0 0 -0.07,0.05 0.12,0.12 0 0 0 0,0.1 l 0.27,0.26 z"
         transform="translate(-2.52,-6.68)"
         id="path49" /><path
         class="cls-1"
         d="m 23.92,26.35 c 0,0.06 0,0.17 0.12,0.16 a 0.31,0.31 0 0 0 0.21,-0.12 c 0.54,-0.69 0.35,-2.89 -0.33,-4 h -0.05 a 0.09,0.09 0 0 0 -0.08,0.06 0.21,0.21 0 0 0 0,0.19 4.91,4.91 0 0 1 0.56,2.9 c 0,0.09 -0.06,0.2 -0.16,0.21 -0.1,0.01 -0.13,0 -0.18,-0.29 a 5.25,5.25 0 0 0 -0.78,-2.21 0.7,0.7 0 0 0 0,0.43 7.07,7.07 0 0 1 0.69,2.68"
         transform="translate(-2.52,-6.68)"
         id="path50" /><path
         class="cls-1"
         d="m 23.46,22.64 v 0 a 0.44,0.44 0 0 0 0,0.3 4.61,4.61 0 0 1 0.66,1.8 v 0 0 a 4.9,4.9 0 0 0 -0.65,-2.08 z"
         transform="translate(-2.52,-6.68)"
         id="path51" /><path
         class="cls-1"
         d="m 20.15,12.58 0.3,0.12 q 0.24,0.12 0.48,0.27 a 2.43,2.43 0 0 1 1.25,1.95 v 0.13 c 0.25,1.16 0.41,1.86 -0.76,2.79 a 0.28,0.28 0 0 0 0,0.3 0.14,0.14 0 0 0 0.13,0.09 v 0 a 2.2,2.2 0 0 0 0.91,-0.87 c 0.68,-0.92 -0.07,-3 -0.31,-3.67 a 1.76,1.76 0 0 0 -1,-1 l -1.29,-0.6 a 0.45,0.45 0 0 1 -0.19,-0.41 c 0,-0.15 0.11,-0.18 0.28,-0.28 a 1.39,1.39 0 0 1 0.56,-0.11 h 0.48 a 11.48,11.48 0 0 1 5.83,1.94 v 0 a 0.23,0.23 0 0 1 0.05,0.24 c -0.05,0.1 -0.18,0.14 -0.44,0.16 A 0.52,0.52 0 0 1 26.06,13.48 L 25.9,13.21 c 0,0 0,-0.06 -0.06,-0.06 -0.06,0 0,0 -0.06,0.07 l -0.07,0.36 c 0,0.05 0,0.07 0.07,0.08 a 2.45,2.45 0 0 0 0.83,0.14 2.15,2.15 0 0 0 1.31,-0.49 c 0.06,-0.08 0.09,-0.15 0.07,-0.19 -0.02,-0.04 -0.1,-0.07 -0.22,-0.08 h -0.14 a 2,2 0 0 1 -1.19,-0.36 11.92,11.92 0 0 0 -6.19,-1.62 1.09,1.09 0 0 0 -0.54,0.11 0.64,0.64 0 0 0 -0.36,0.45 0.67,0.67 0 0 0 0.16,0.54 1.5,1.5 0 0 0 0.64,0.39"
         transform="translate(-2.52,-6.68)"
         id="path52" /><path
         class="cls-1"
         d="m 10.5,16.92 c 0.1,0.28 0.24,0.44 0.43,0.47 h 0.84 a 0.19,0.19 0 0 0 0.14,-0.17 0.15,0.15 0 0 0 -0.1,-0.14 h -0.67 c -0.25,0 -0.37,-0.36 -0.47,-0.72 a 1.86,1.86 0 0 1 0.53,-1.74 l 0.05,-0.08 h -0.06 a 0.1,0.1 0 0 1 -0.06,-0.09 0.18,0.18 0 0 1 0.07,-0.16 l 0.11,-0.1 v 0 h -0.07 v 0 a 3.65,3.65 0 0 0 -1,0.91 0.55,0.55 0 0 0 -0.06,0.53 z"
         transform="translate(-2.52,-6.68)"
         id="path53" /><path
         class="cls-1"
         d="m 12.21,16.26 v 0 a 1.46,1.46 0 0 1 -0.43,0.08 0.65,0.65 0 0 1 -0.52,-0.19 h -0.05 v 0 a 0.18,0.18 0 0 0 0,0.14 0.68,0.68 0 0 0 0.52,0.26 0.87,0.87 0 0 0 0.51,-0.21 c 0,0 0.05,-0.06 0,-0.08"
         transform="translate(-2.52,-6.68)"
         id="path54" /><path
         class="cls-1"
         d="m 11,15.49 a 0.35,0.35 0 0 0 0,0.26 0.24,0.24 0 0 0 0.16,0.11 h 0.15 a 2.19,2.19 0 0 0 1.21,-0.58 v -0.06 0 a 2.53,2.53 0 0 1 -1.06,0.37 c -0.09,0 -0.13,-0.06 -0.14,-0.1 -0.01,-0.04 0,-0.18 0.09,-0.32 a 2.58,2.58 0 0 0 0.4,-0.43 c 0,0 0,-0.07 0,-0.13 a 0.68,0.68 0 0 1 0,-0.15 0.37,0.37 0 0 1 0,-0.11 0.35,0.35 0 0 1 0.09,-0.23 0.85,0.85 0 0 1 0.2,-0.17 0.14,0.14 0 0 0 0.06,-0.16 0.23,0.23 0 0 0 -0.21,-0.15 c -0.25,0.09 -0.33,0.21 -0.3,0.43 a 0.63,0.63 0 0 1 -0.13,0.57 3.18,3.18 0 0 0 -0.51,0.81"
         transform="translate(-2.52,-6.68)"
         id="path55" /><path
         class="cls-1"
         d="m 12,14.34 a 0.14,0.14 0 0 0 0,0.14 0.49,0.49 0 0 1 0.09,0.51 v 0 a 0.54,0.54 0 0 0 0.18,-0.3 0.49,0.49 0 0 0 -0.1,-0.35 c 0,0 -0.08,-0.08 -0.12,-0.07 -0.04,0.01 -0.06,0 -0.07,0.08"
         transform="translate(-2.52,-6.68)"
         id="path56" /><path
         class="cls-1"
         d="m 18.44,34.89 a 2.39,2.39 0 0 1 0.68,1.22 c 0.22,0.63 0.45,1.27 0.93,1.39 a 0.52,0.52 0 0 0 0.19,0 v 0 a 0.16,0.16 0 0 0 -0.06,-0.05 c -0.29,-0.1 -0.46,-0.59 -0.64,-1.15 -0.18,-0.56 -0.47,-1.4 -1,-1.55 h -0.16 a 0.27,0.27 0 0 0 -0.11,0 c 0,0 0,0 0.1,0.11"
         transform="translate(-2.52,-6.68)"
         id="path57" /><path
         class="cls-1"
         d="m 19.32,34.77 a 0.27,0.27 0 0 0 -0.13,0 l 0.06,0.06 c 0.33,0.18 0.53,0.71 0.75,1.28 0.22,0.57 0.52,1.4 1,1.39 v 0 h 0.11 v 0 C 20.82,37.36 20.64,36.86 20.44,36.33 20.19,35.64 19.9,34.86 19.33,34.78"
         transform="translate(-2.52,-6.68)"
         id="path58" /><path
         class="cls-1"
         d="m 20.94,36.28 v 0 c 0.2,0.54 0.45,1.22 1,1.24 H 22 a 2.13,2.13 0 0 1 -0.65,-1.08 c -0.13,-0.42 -0.25,-0.78 -0.68,-0.9 h -0.11 v 0.05 c 0.15,0.08 0.24,0.34 0.37,0.68"
         transform="translate(-2.52,-6.68)"
         id="path59" /><path
         class="cls-1"
         d="m 19.34,34.41 h 0.18 a 0.16,0.16 0 0 0 0.16,-0.16 0.14,0.14 0 0 0 -0.11,-0.14 h -0.36 a 2.22,2.22 0 0 1 -0.73,-0.08 h -0.09 a 0.42,0.42 0 0 0 -0.14,0 c -0.05,0 -0.11,0 -0.13,0.05 a 0.21,0.21 0 0 0 0,0.2 c 0.13,0.17 0.42,0.24 0.88,0.24 h 0.33"
         transform="translate(-2.52,-6.68)"
         id="path60" /><path
         class="cls-1"
         d="M 24,34.36 A 0.55,0.55 0 0 0 23.4,34 a 0.63,0.63 0 0 0 -0.67,0.6 0.19,0.19 0 0 0 0,0.12 0.21,0.21 0 0 0 0.13,0.05 0.15,0.15 0 0 0 0.14,-0.1 c 0,-0.29 0.23,-0.33 0.3,-0.33 a 0.31,0.31 0 0 1 0.29,0.2 0.26,0.26 0 0 1 -0.11,0.28 0.35,0.35 0 0 0 -0.15,0.48 1.06,1.06 0 0 1 0,1.14 0.37,0.37 0 0 0 0.22,0.52 v 0 a 0.22,0.22 0 0 1 0,0.23 0.3,0.3 0 0 1 -0.26,0.16 A 0.3,0.3 0 0 1 23,37.12 0.19,0.19 0 0 0 22.9,37 a 0.17,0.17 0 0 0 -0.13,0.07 0.19,0.19 0 0 0 0,0.14 c 0.19,0.37 0.41,0.55 0.69,0.54 a 0.91,0.91 0 0 0 0.4,-0.1 0.53,0.53 0 0 0 0.2,-0.37 0.54,0.54 0 0 0 -0.12,-0.38 c -0.15,-0.08 -0.17,-0.26 -0.09,-0.53 a 1,1 0 0 0 0,-0.93 0.44,0.44 0 0 1 0.07,-0.52 A 0.49,0.49 0 0 0 24,34.4"
         transform="translate(-2.52,-6.68)"
         id="path61" /><path
         class="cls-1"
         d="M 18,36.93 A 0.19,0.19 0 0 0 17.82,36.8 h -0.07 l -0.15,0.27 a 0.25,0.25 0 0 1 -0.42,0 0.26,0.26 0 0 1 0,-0.23 0.46,0.46 0 0 1 0.2,-0.28 0.42,0.42 0 0 0 0,-0.38 1.3,1.3 0 0 1 -0.08,-0.89 l 0.1,-0.4 a 0.3,0.3 0 0 0 -0.13,-0.35 0.29,0.29 0 0 1 -0.13,-0.33 0.26,0.26 0 0 1 0.23,-0.19 0.19,0.19 0 0 1 0.1,0 0.3,0.3 0 0 1 0.18,0.2 v 0.08 a 0.27,0.27 0 0 0 0.19,0.11 0.14,0.14 0 0 0 0.1,0 0.27,0.27 0 0 0 0,-0.22 0.67,0.67 0 0 0 -0.67,-0.49 0.54,0.54 0 0 0 -0.4,0.16 0.5,0.5 0 0 0 -0.13,0.39 0.44,0.44 0 0 0 0.14,0.36 v 0 a 0.5,0.5 0 0 1 0,0.57 1,1 0 0 0 0,0.79 0.86,0.86 0 0 1 0,0.65 l -0.05,0.09 a 0.41,0.41 0 0 0 -0.07,0.38 0.53,0.53 0 0 0 0.55,0.42 0.72,0.72 0 0 0 0.4,-0.12 0.7,0.7 0 0 0 0.28,-0.52"
         transform="translate(-2.52,-6.68)"
         id="path62" /><path
         class="cls-1"
         d="m 22.65,37.7 a 0.32,0.32 0 0 0 -0.2,0.07 0.66,0.66 0 0 1 -0.36,0.1 H 22 c -1.18,0 -2.35,0 -3.56,-0.08 a 0.82,0.82 0 0 1 -0.35,-0.1 0.49,0.49 0 0 0 -0.24,-0.05 c -0.06,0 -0.1,0 -0.12,0 a 0.23,0.23 0 0 0 0,0.2 c 0.24,0.35 2.22,0.31 3,0.3 h 1.4 a 1.32,1.32 0 0 0 0.67,-0.19 0.14,0.14 0 0 0 0.07,-0.16 0.19,0.19 0 0 0 -0.19,-0.13"
         transform="translate(-2.52,-6.68)"
         id="path63" /><path
         class="cls-1"
         d="m 18.41,13.08 c 1.13,0.26 1.93,0.62 2.15,1.57 a 1,1 0 0 0 0.22,0.73 v 0 -0.08 a 1.86,1.86 0 0 0 -0.91,-1.9 4.47,4.47 0 0 0 -1.38,-0.55 0.47,0.47 0 0 1 -0.41,-0.51 0.6,0.6 0 0 1 0.56,-0.6 h 0.07 c 0.1,0 0.15,0 0.15,-0.07 0,-0.07 0,0 -0.06,0 h -0.14 c -0.38,0 -0.75,0.09 -0.79,0.69 -0.05,0.45 0.1,0.68 0.49,0.75"
         transform="translate(-2.52,-6.68)"
         id="path64" /><path
         class="cls-1"
         d="m 18.57,12.1 v 0 c 0.2,0 0.28,0.08 0.28,0.16 0,0.08 -0.07,0.16 -0.28,0.18 v 0 h 0.06 0.23 a 0.39,0.39 0 0 0 0.36,-0.14 0.14,0.14 0 0 0 0,-0.15 0.41,0.41 0 0 0 -0.36,-0.16 0.57,0.57 0 0 0 -0.22,0"
         transform="translate(-2.52,-6.68)"
         id="path65" /><path
         class="cls-1"
         d="m 20.13,13.21 a 0.33,0.33 0 0 0 0.19,0 0.21,0.21 0 0 0 0.15,0 v 0 a 1.3,1.3 0 0 0 -1.24,-0.34 c -0.11,0.06 0.79,0 0.92,0.36"
         transform="translate(-2.52,-6.68)"
         id="path66" /><path
         class="cls-1"
         d="m 20.33,15 a 1.92,1.92 0 0 0 -0.8,-0.82 c -0.08,0 -0.1,0 -0.08,0.05 a 2.9,2.9 0 0 1 1,1.61 0.44,0.44 0 0 1 -0.08,0.35 v 0 l -0.15,0.15 a 0.14,0.14 0 0 0 0,0.15 0.18,0.18 0 0 0 0.16,0.1 v 0 l 0.55,-0.42 A 0.24,0.24 0 0 0 20.99,16.01 0.22,0.22 0 0 0 21,16 2.1,2.1 0 0 1 20.36,15.07"
         transform="translate(-2.52,-6.68)"
         id="path67" /><path
         class="cls-1"
         d="m 18.78,15.42 v 0 a 0.11,0.11 0 0 0 0,0.08 6.59,6.59 0 0 1 0.13,1.56 0.15,0.15 0 0 0 0,0.1 0.3,0.3 0 0 0 0.22,0.06 1.78,1.78 0 0 0 0.56,-0.25 0.47,0.47 0 0 0 0.23,-0.41 3.2,3.2 0 0 0 -0.7,-1.72 c 0,0 0,0 -0.06,0 v 0 a 0.18,0.18 0 0 0 0,0.11 c 0.47,0.85 0.58,1.38 0.38,1.73 a 0.55,0.55 0 0 1 -0.3,0.16 c -0.07,0 -0.16,0 -0.19,-0.22 a 3.6,3.6 0 0 0 -0.24,-1.15 z"
         transform="translate(-2.52,-6.68)"
         id="path68" /><path
         class="cls-1"
         d="m 19.4,16.33 a 0.38,0.38 0 0 0 0,-0.15 A 3.62,3.62 0 0 0 18.93,15 v 0 0 a 7.17,7.17 0 0 1 0.35,1.34 c 0,0 0.1,0.12 0.12,-0.05"
         transform="translate(-2.52,-6.68)"
         id="path69" /><path
         class="cls-1"
         d="m 20.09,16 c 0.07,0.13 0.15,-0.05 0.14,-0.1 -0.16,-0.53 -0.66,-1.34 -0.79,-1.29 A 6,6 0 0 1 20.09,16"
         transform="translate(-2.52,-6.68)"
         id="path70" /><path
         class="cls-1"
         d="m 17.71,17 0.09,-0.65 a 0.11,0.11 0 0 0 0,-0.1 c 0,0 0,0 -0.07,0.08 -0.07,0.08 -0.34,0.9 -0.2,1.15 a 0.15,0.15 0 0 0 0.13,0.08 h 0.19 a 0.71,0.71 0 0 0 0.55,-0.21 c 0.28,-0.3 0.23,-0.91 0.2,-1.45 v -0.11 c 0,-0.11 -0.06,-0.15 -0.09,-0.15 h -0.06 a 0.19,0.19 0 0 0 0,0.15 2.8,2.8 0 0 1 -0.22,1.21 0.45,0.45 0 0 1 -0.33,0.24 c -0.08,0 -0.18,-0.06 -0.19,-0.24"
         transform="translate(-2.52,-6.68)"
         id="path71" /><path
         class="cls-1"
         d="m 18.11,16.76 a 5.09,5.09 0 0 0 0,-0.68 c 0,0 0,0 0,0 a 0.06,0.06 0 0 0 -0.06,0.06 3.61,3.61 0 0 1 -0.08,0.66 0.16,0.16 0 0 0 0,0.1 v 0 a 0.12,0.12 0 0 0 0.12,-0.11"
         transform="translate(-2.52,-6.68)"
         id="path72" /><path
         class="cls-1"
         d="m 17.79,14.86 a 0.08,0.08 0 0 0 0.08,0 v 0 a 0.1,0.1 0 0 0 -0.05,-0.13 c -0.18,-0.07 -0.61,-0.28 -0.81,-0.33 0,0 0,0 0,0 a 0.06,0.06 0 0 0 0,0.07 6.06,6.06 0 0 1 0.76,0.39"
         transform="translate(-2.52,-6.68)"
         id="path73" /><path
         class="cls-1"
         d="m 16.29,17.59 a 0.52,0.52 0 0 0 0.35,0.11 0.55,0.55 0 0 0 0.54,-0.38 l 0.18,-0.75 a 0.09,0.09 0 0 0 0,-0.09 H 17.3 c -0.07,0 -0.16,0.07 -0.19,0.22 a 2,2 0 0 1 -0.24,0.68 0.17,0.17 0 0 1 -0.14,0.08 0.1,0.1 0 0 1 -0.11,-0.06 0.11,0.11 0 0 1 0,-0.13 1,1 0 0 0 0.16,-0.36 0.08,0.08 0 0 0 0,-0.08 v 0 l -0.09,0.05 a 2.64,2.64 0 0 1 -0.35,0.52 c -0.06,0.1 -0.07,0.17 0,0.23"
         transform="translate(-2.52,-6.68)"
         id="path74" /><path
         class="cls-1"
         d="m 14.28,16.83 a 0.38,0.38 0 0 0 -0.17,0 c -0.06,0 -0.11,0 -0.12,0.05 -0.01,0.05 0,0.07 0,0.08 a 1.5,1.5 0 0 1 0.59,2 0.16,0.16 0 0 0 0,0.1 v 0 A 0.27,0.27 0 0 0 14.7,19 1.51,1.51 0 0 0 14.22,16.82"
         transform="translate(-2.52,-6.68)"
         id="path75" /><path
         class="cls-1"
         d="m 7.52,20.27 c 0,0.07 0,0.11 0.08,0.13 h 0.05 a 0.16,0.16 0 0 0 0.13,-0.08 0.15,0.15 0 0 0 0,-0.16 c -0.15,-0.26 0,-0.38 0.1,-0.52 v 0 A 0.87,0.87 0 0 0 8,19.5 0.16,0.16 0 0 0 8,19.36 0.12,0.12 0 0 0 7.88,19.25 0.24,0.24 0 0 0 7.74,19.3 1.52,1.52 0 0 1 7.47,19.52 v 0 0 H 7.41 c 0,0 -0.1,0.07 0,0.22 a 3,3 0 0 1 0.19,0.44"
         transform="translate(-2.52,-6.68)"
         id="path76" /><path
         class="cls-1"
         d="m 8.09,20.52 a 0.22,0.22 0 0 0 0.17,0.11 0.08,0.08 0 0 0 0.07,0 0.3,0.3 0 0 0 0,-0.25 c -0.15,-0.35 0,-0.47 0.2,-0.65 v 0 a 0.12,0.12 0 0 0 -0.1,-0.2 h -0.1 c -0.4,0.24 -0.47,0.49 -0.29,1"
         transform="translate(-2.52,-6.68)"
         id="path77" /><path
         class="cls-1"
         d="m 8.57,20.21 0.08,0.47 a 0.17,0.17 0 0 0 0.16,0.12 0.12,0.12 0 0 0 0.1,-0.05 0.18,0.18 0 0 0 0,-0.16 A 0.5,0.5 0 0 1 9,20 l 0.17,-0.16 a 0.18,0.18 0 0 0 0,-0.16 A 0.16,0.16 0 0 0 9,19.63 H 8.93 l -0.23,0.2 a 0.32,0.32 0 0 0 -0.16,0.36"
         transform="translate(-2.52,-6.68)"
         id="path78" /><path
         class="cls-1"
         d="m 13.65,17.13 a 0.19,0.19 0 0 0 -0.1,0 0.15,0.15 0 0 0 -0.15,0.11 0.27,0.27 0 0 0 0.06,0.29 1.42,1.42 0 0 1 0.6,0.75 1,1 0 0 1 -0.2,0.81 l -1.51,1.38 c -1,0.95 -1.13,1.82 -0.42,2.63 h 0.05 a 0.48,0.48 0 0 0 0,-0.12 c -0.53,-1.11 0.19,-1.73 1.1,-2.52 v 0 a 10.87,10.87 0 0 0 1.33,-1.31 c 0.34,-0.7 0.1,-1.36 -0.74,-2"
         transform="translate(-2.52,-6.68)"
         id="path79" /><path
         class="cls-1"
         d="m 14.23,22.79 a 6.55,6.55 0 0 0 -0.68,0.05 h -0.07 a 2.37,2.37 0 0 1 -0.43,0 c -0.4,0 -0.69,-0.14 -0.86,-0.89 0,-0.1 0,-0.13 -0.06,-0.16 A 0.2,0.2 0 0 0 12,22 c 0,1 0.66,1 1.6,1 a 7.13,7.13 0 0 1 0.89,0.05 1.23,1.23 0 0 1 0.93,0.85 A 1.11,1.11 0 0 1 15,25 c -0.09,0.08 -0.12,0.15 -0.1,0.21 a 0.25,0.25 0 0 0 0.22,0.11 0.23,0.23 0 0 0 0.14,0 1.36,1.36 0 0 0 0.53,-1.4 1.49,1.49 0 0 0 -1.27,-1.12 h -0.29"
         transform="translate(-2.52,-6.68)"
         id="path80" /><path
         class="cls-1"
         d="m 12.55,19.14 a 3,3 0 0 0 -1.72,3.17 2.06,2.06 0 0 0 1.87,1.74 h 1.66 a 0.29,0.29 0 0 1 0.26,0.14 0.37,0.37 0 0 1 -0.06,0.36 c -0.05,0.06 -0.05,0.11 0,0.13 v 0 a 0.23,0.23 0 0 0 0.14,-0.07 0.58,0.58 0 0 0 0.2,-0.64 0.53,0.53 0 0 0 -0.51,-0.32 h -0.76 a 2.81,2.81 0 0 1 -1.37,-0.17 1.9,1.9 0 0 1 -1.09,-1.65 3,3 0 0 1 1.58,-2.51 c 0.47,-0.3 1,-0.68 1.11,-1 a 0.27,0.27 0 0 0 0,-0.21 v 0 a 0.21,0.21 0 0 0 -0.1,0 3.41,3.41 0 0 1 -1.19,0.9"
         transform="translate(-2.52,-6.68)"
         id="path81" /><path
         class="cls-1"
         d="m 9.68,22.45 a 0.77,0.77 0 0 0 0.18,0.85 7.3,7.3 0 0 0 0.9,0.64 1.29,1.29 0 0 1 0.5,1 v 0 c 0,0.09 0,0.18 0.05,0.28 a 0.77,0.77 0 0 0 0.68,0.62 v 0 a 0.14,0.14 0 0 0 0.14,-0.09 c 0,-0.05 0,-0.08 -0.08,-0.09 -0.35,-0.14 -0.51,-0.28 -0.54,-0.51 A 2.71,2.71 0 0 0 11,23.85 6.19,6.19 0 0 1 10.11,23.2 0.39,0.39 0 0 1 10,23 2.15,2.15 0 0 1 10.37,21.6 1.44,1.44 0 0 0 9.48,20 H 9.39 c -0.05,0 -0.06,0 -0.06,0 a 0.15,0.15 0 0 0 0.05,0.14 c 0.62,0.47 1,0.92 0.3,2.33"
         transform="translate(-2.52,-6.68)"
         id="path82" /><path
         class="cls-1"
         d="m 9.94,24.29 a 1.21,1.21 0 0 1 0.61,1.08 c 0.08,1.09 0.62,1.63 1.62,1.61 v 0 a 0.84,0.84 0 0 0 0.45,-0.12 c 0,0 0,0 0,0 a 0.26,0.26 0 0 0 -0.1,-0.2 0.27,0.27 0 0 0 -0.23,-0.11 0.45,0.45 0 0 0 -0.14,0 v 0 a 0.82,0.82 0 0 1 -0.26,0.06 0.69,0.69 0 0 1 -0.22,0 1.14,1.14 0 0 1 -0.87,-1.09 1.32,1.32 0 0 0 -0.49,-1.25 2.91,2.91 0 0 1 -1,-0.88 1.23,1.23 0 0 1 0.06,-1.29 l 0.12,-0.25 a 1.24,1.24 0 0 0 0.1,-0.54 c 0,-0.54 -0.14,-0.84 -0.43,-0.92 H 9.12 c 0,0 -0.09,0 -0.1,0 -0.01,0 0,0.1 0.1,0.2 0.36,0.29 0.35,0.79 0,1.61 A 1.28,1.28 0 0 0 9,23.41 3.25,3.25 0 0 0 9.92,24.29"
         transform="translate(-2.52,-6.68)"
         id="path83" /><path
         class="cls-1"
         d="m 13.14,26.86 h 0.09 c 0,0 0,0 0,-0.06 a 0.71,0.71 0 0 0 -0.29,-0.07 v 0 a 0.22,0.22 0 0 0 0.21,0.14"
         transform="translate(-2.52,-6.68)"
         id="path84" /><path
         class="cls-1"
         d="m 13.75,26.73 a 0.2,0.2 0 0 0 0,-0.08 0.61,0.61 0 0 0 -0.36,-0.1 v 0 0 c 0,0 0,0 0,0.07 a 0.57,0.57 0 0 0 0.35,0.12 v 0 z"
         transform="translate(-2.52,-6.68)"
         id="path85" /><path
         class="cls-1"
         d="m 13.82,26.33 h -0.09 v 0 a 0.35,0.35 0 0 0 0.36,0.2 h 0.14 v 0 c 0,0 0,0 0,-0.06 a 0.54,0.54 0 0 0 -0.44,-0.18"
         transform="translate(-2.52,-6.68)"
         id="path86" /><path
         class="cls-1"
         d="m 14,25.36 a 0.4,0.4 0 0 0 0.2,-0.08 l 0.16,-0.14 a 0.08,0.08 0 0 0 0,-0.12 0.37,0.37 0 0 1 -0.09,-0.46 0.13,0.13 0 0 0 0,-0.12 H 14.2 a 0.49,0.49 0 0 0 -0.15,0.09 v 0 a 0.59,0.59 0 0 0 -0.27,0.65 c 0,0.13 0.09,0.19 0.2,0.19 z"
         transform="translate(-2.52,-6.68)"
         id="path87" /><path
         class="cls-1"
         d="m 12.83,26.48 h 0.06 v 0 a 0.58,0.58 0 0 1 -0.2,-0.51 1,1 0 0 0 -0.22,-0.64 0.21,0.21 0 0 0 -0.05,0.08 0.26,0.26 0 0 0 0,0.23 0.47,0.47 0 0 1 0.08,0.38 c 0,0.29 0.07,0.45 0.33,0.49"
         transform="translate(-2.52,-6.68)"
         id="path88" /><path
         class="cls-1"
         d="m 13.23,26.34 h 0.06 c 0.09,0 0.09,-0.06 0.09,-0.06 0,0 0,0 -0.05,-0.05 a 0.52,0.52 0 0 1 -0.24,-0.58 0.45,0.45 0 0 0 -0.07,-0.43 0.44,0.44 0 0 1 -0.09,-0.41 v 0 h -0.1 a 0.27,0.27 0 0 0 -0.14,0.16 0.63,0.63 0 0 0 0.12,0.45 0.4,0.4 0 0 1 0.09,0.36 0.6,0.6 0 0 0 0.15,0.47 0.23,0.23 0 0 0 0.19,0.09"
         transform="translate(-2.52,-6.68)"
         id="path89" /><path
         class="cls-1"
         d="m 13.81,24.49 c 0,0 0,-0.06 0,-0.06 v 0 h -0.16 a 0.54,0.54 0 0 0 -0.46,0.21 0.45,0.45 0 0 0 0,0.43 0.37,0.37 0 0 1 0,0.4 0.48,0.48 0 0 0 0.38,0.67 h 0.11 v 0 a 0.22,0.22 0 0 1 0,-0.33 0.14,0.14 0 0 0 0.06,-0.08 c 0,0 0,-0.08 -0.08,-0.13 a 0.68,0.68 0 0 1 0.09,-1"
         transform="translate(-2.52,-6.68)"
         id="path90" /><path
         class="cls-1"
         d="m 15.48,26.35 a 0.86,0.86 0 0 1 0.42,-0.29 1.48,1.48 0 0 0 0.48,-0.36 0.82,0.82 0 0 0 -0.21,-1 0.16,0.16 0 0 0 -0.09,0 0.13,0.13 0 0 0 -0.11,0.06 0.21,0.21 0 0 0 0,0.19 l 0.16,0.28 a 0.34,0.34 0 0 1 -0.17,0.48 2.65,2.65 0 0 0 -0.77,0.53 0.31,0.31 0 0 1 -0.2,0.13 0.25,0.25 0 0 1 -0.17,-0.07 L 14.52,26 a 0.19,0.19 0 0 1 0,-0.18 0.12,0.12 0 0 1 0.12,-0.07 h 0.09 l 0.2,0.09 h 0.06 c 0,0 0,0 0.05,-0.06 a 0.41,0.41 0 0 0 -0.27,-0.41 h -0.15 a 0.69,0.69 0 0 0 -0.56,0.37 c -0.15,0.22 0.16,0.44 0.48,0.67 0.09,0.06 0.19,0.15 0.28,0.22 a 0.36,0.36 0 0 0 0.19,0.05 0.25,0.25 0 0 0 0.14,0 1.06,1.06 0 0 0 0.37,-0.29"
         transform="translate(-2.52,-6.68)"
         id="path91" /><path
         class="cls-1"
         d="m 16.31,26.72 h 0.07 a 2.43,2.43 0 0 1 0.72,0.27 0.09,0.09 0 0 0 0.13,0 0.14,0.14 0 0 0 -0.06,-0.09 2.15,2.15 0 0 0 -1.1,-0.35 1.12,1.12 0 0 0 -0.32,0 c -0.11,0.06 -0.19,0.15 -0.19,0.23 a 0.15,0.15 0 0 0 0.09,0.13 l 0.7,0.18 0.48,0.21 h 0.05 a 0.14,0.14 0 0 0 0.1,0 v -0.08 a 1.71,1.71 0 0 0 -0.61,-0.27 c -0.15,-0.05 -0.14,-0.1 -0.14,-0.12 0,-0.02 0,-0.07 0.12,-0.07"
         transform="translate(-2.52,-6.68)"
         id="path92" /><path
         class="cls-1"
         d="m 16.71,25.77 a 0.91,0.91 0 0 0 -0.24,0.24 0.32,0.32 0 0 0 0,0.27 c 0.12,0.25 0.62,0.38 0.86,0.44 v 0 c 0.06,0 0.12,0 0.12,-0.06 v -0.06 0 a 1.71,1.71 0 0 1 -0.63,-0.39 c 0,-0.11 -0.06,-0.19 0,-0.25 0.06,-0.06 0.11,-0.09 0.23,-0.1 a 1,1 0 0 1 0.32,0.06 v 0 h 0.05 c 0,0 0,-0.06 0,-0.09 a 0.57,0.57 0 0 0 -0.25,-0.14 0.61,0.61 0 0 0 -0.44,0.12"
         transform="translate(-2.52,-6.68)"
         id="path93" /><path
         class="cls-1"
         d="m 17.15,26 v 0 c -0.06,0 -0.08,0 -0.08,0.05 0,0.05 0,0.08 0,0.11 a 3.26,3.26 0 0 0 0.65,0.29 v 0 c 0,0 0.05,0 0.06,-0.06 a 0.09,0.09 0 0 0 0,-0.1 A 3.1,3.1 0 0 0 17.15,26"
         transform="translate(-2.52,-6.68)"
         id="path94" /><path
         class="cls-1"
         d="m 17.28,27.84 v 0 a 1.12,1.12 0 0 0 0.27,0 2.88,2.88 0 0 1 1,-0.22 c 0.07,0 0.12,0 0.12,-0.08 0,-0.08 0,-0.1 -0.12,-0.11 H 18.4 a 3.45,3.45 0 0 0 -0.88,0.18 h -0.06 a 0.11,0.11 0 0 1 -0.1,0 c 0,-0.06 0,-0.14 0.06,-0.2 a 2.06,2.06 0 0 1 1,-0.58 0.1,0.1 0 0 0 0.08,-0.12 0.12,0.12 0 0 0 -0.13,-0.08 1.92,1.92 0 0 0 -1.23,0.8 0.36,0.36 0 0 0 -0.06,0.36 0.27,0.27 0 0 0 0.24,0.13"
         transform="translate(-2.52,-6.68)"
         id="path95" /><path
         class="cls-1"
         d="m 17.93,27.12 c 0,0 0,0.07 0,0.09 0,0.02 0.08,0.05 0.17,0.05 a 0.71,0.71 0 0 0 0.44,-0.13 v -0.06 0 c 0,0 -0.06,0 -0.21,0 a 0.64,0.64 0 0 0 -0.4,0.11"
         transform="translate(-2.52,-6.68)"
         id="path96" /><path
         class="cls-1"
         d="m 16.94,25.1 a 0.15,0.15 0 0 1 0,-0.16 c 0,-0.06 0.1,-0.07 0.15,-0.07 v 0 0 A 0.68,0.68 0 0 0 16.6,24.6 c 0,0 -0.06,0 -0.07,0 0,0.38 0.19,0.64 0.65,0.82 h 0.09 v 0 z"
         transform="translate(-2.52,-6.68)"
         id="path97" /><path
         class="cls-1"
         d="m 16.37,23.33 v 0 a 1.23,1.23 0 0 0 0.29,0.93 0.53,0.53 0 0 0 0.36,0.19 0.11,0.11 0 0 0 0.08,0 0.28,0.28 0 0 0 0,-0.21 0.41,0.41 0 0 0 -0.2,-0.19 0.1,0.1 0 0 1 -0.08,0.06 c -0.11,0 -0.22,-0.17 -0.23,-0.36 a 0.35,0.35 0 0 0 -0.22,-0.42"
         transform="translate(-2.52,-6.68)"
         id="path98" /><path
         class="cls-1"
         d="m 17.49,24.64 a 0.41,0.41 0 0 0 -0.17,-0.12 v 0 0.05 a 2.4,2.4 0 0 0 0.83,1.72 0.27,0.27 0 0 0 0.14,0 c 0.15,0 0.2,-0.16 0.22,-0.21 a 1.14,1.14 0 0 0 -0.1,-0.63 0.17,0.17 0 0 0 -0.12,-0.07 c 0,0 -0.06,0 -0.06,0 v 0.33 a 0.21,0.21 0 0 1 0,0.12 h -0.05 v 0 A 0.2,0.2 0 0 1 18.05,25.78 1.58,1.58 0 0 1 17.61,24.7 0.32,0.32 0 0 0 17.54,24.51"
         transform="translate(-2.52,-6.68)"
         id="path99" /><path
         class="cls-1"
         d="m 19.2,27.84 a 0.63,0.63 0 0 0 0.21,0.05 0.21,0.21 0 0 0 0.18,-0.09 1.06,1.06 0 0 0 0.07,-0.74 v 0 a 0.59,0.59 0 0 0 -0.13,-0.19 v 0 a 0.45,0.45 0 0 0 0,0.08 v 0.43 c 0,0.12 0,0.17 -0.11,0.18 A 0.28,0.28 0 0 1 19.29,27.5 2.83,2.83 0 0 1 18.98,26.12 c 0,-0.17 -0.11,-0.27 -0.17,-0.27 -0.06,0 -0.05,0 -0.05,0.12 a 2.5,2.5 0 0 0 0.52,1.87 z"
         transform="translate(-2.52,-6.68)"
         id="path100" /><path
         class="cls-1"
         d="m 19.23,27.06 v 0 a 0.34,0.34 0 0 0 0,-0.17 l -0.05,-0.35 a 0.14,0.14 0 0 0 -0.1,-0.08 c 0,0 -0.06,0 -0.07,0.07 a 0.64,0.64 0 0 0 0.09,0.49 h 0.07"
         transform="translate(-2.52,-6.68)"
         id="path101" /><path
         class="cls-1"
         d="m 18,25.53 c 0,0 0.05,-0.09 0.05,-0.1 a 0.39,0.39 0 0 0 -0.08,-0.25 c 0,-0.05 -0.06,-0.05 -0.07,-0.05 v 0.05 a 0.35,0.35 0 0 0 0,0.28 0.13,0.13 0 0 0 0.1,0.07"
         transform="translate(-2.52,-6.68)"
         id="path102" /><path
         class="cls-1"
         d="m 20.63,13.47 h -0.05 c 0,0 -0.06,0 -0.06,0 0,0 0,0.08 0.15,0.08 a 0.54,0.54 0 0 1 0.62,0.35 0.2,0.2 0 0 1 0,0.2 c 0,0 -0.07,0.07 -0.18,0.07 v 0 0.07 a 0.34,0.34 0 0 0 0.17,0.05 0.21,0.21 0 0 0 0.18,-0.09 0.26,0.26 0 0 0 0,-0.26 0.79,0.79 0 0 0 -0.85,-0.52"
         transform="translate(-2.52,-6.68)"
         id="path103" /><path
         class="cls-1"
         d="m 21,14 c 0,0 0.05,0 0.05,-0.07 0,-0.07 -0.05,-0.17 -0.2,-0.18 -0.15,-0.01 0,0 0.07,0.15 A 0.19,0.19 0 0 0 21,14"
         transform="translate(-2.52,-6.68)"
         id="path104" /><path
         class="cls-1"
         d="m 21.2,14.63 a 0.07,0.07 0 0 0 -0.08,0.07 c 0,0 0,0.08 0.06,0.08 0.34,0 0.46,0.21 0.46,0.64 0,0.2 -0.13,0.19 -0.2,0.19 a 0.39,0.39 0 0 1 -0.2,0 0.09,0.09 0 0 0 -0.1,0 c 0,0 0,0 0,0.06 a 0.66,0.66 0 0 0 0.46,0.18 0.23,0.23 0 0 0 0.14,0 c 0.13,-0.1 0.16,-0.28 0.1,-0.58 A 0.61,0.61 0 0 0 21.2,14.68"
         transform="translate(-2.52,-6.68)"
         id="path105" /><path
         class="cls-1"
         d="m 21.36,15.33 a 0.06,0.06 0 0 0 0.06,0 0.24,0.24 0 0 0 -0.05,-0.22 0.32,0.32 0 0 0 -0.13,0 c -0.06,0 -0.1,0 -0.1,0.08 0,0.08 0,0.07 0,0.11 a 0.37,0.37 0 0 0 0.19,0.09"
         transform="translate(-2.52,-6.68)"
         id="path106" /><path
         class="cls-1"
         d="m 21.43,17.44 h 0.05 a 1.25,1.25 0 0 0 0.57,-0.79 0.53,0.53 0 0 0 -0.09,-0.41 0.72,0.72 0 0 0 -0.49,-0.18 h -0.06 a 0.2,0.2 0 0 0 -0.19,0.1 0.15,0.15 0 0 0 0,0.11 l 0.31,0.06 a 0.27,0.27 0 0 1 0.17,0.14 0.61,0.61 0 0 1 -0.08,0.43 c -0.23,0.27 -0.34,0.29 -0.29,0.46 0.05,0.17 0,0.09 0.06,0.09"
         transform="translate(-2.52,-6.68)"
         id="path107" /><path
         class="cls-1"
         d="m 21.29,16.77 h 0.12 c 0.12,0 0.13,-0.05 0.13,-0.08 0,-0.03 -0.1,-0.18 -0.13,-0.18 h -0.14 a 0.14,0.14 0 0 0 -0.08,0.11 c 0,0 0,0.08 0.1,0.11"
         transform="translate(-2.52,-6.68)"
         id="path108" /><path
         class="cls-1"
         d="m 22.17,12.84 h -0.06 a 1.15,1.15 0 0 0 0.66,0.24 0.24,0.24 0 0 0 0.15,0 0.14,0.14 0 0 0 0,-0.09 2.36,2.36 0 0 0 -2.2,-1.17 h -0.35 c 0,0 -0.07,0 -0.07,0 0,0 0.14,0.15 0.3,0.16 L 21,12 a 1.64,1.64 0 0 1 1.38,0.53 c 0.07,0.09 0.09,0.17 0.06,0.23 -0.03,0.06 -0.11,0.1 -0.24,0.1"
         transform="translate(-2.52,-6.68)"
         id="path109" /><path
         class="cls-1"
         d="M 21.63,12.36 H 21.4 c 0,0 0,0 0,0 0,0 0,0 0.09,0.09 a 0.86,0.86 0 0 0 0.3,0 0.38,0.38 0 0 0 0.16,0 H 22 c 0,0 0,0 -0.08,-0.08 a 0.81,0.81 0 0 0 -0.25,0"
         transform="translate(-2.52,-6.68)"
         id="path110" /><path
         class="cls-1"
         d="M 23.59,12.58 A 0.4,0.4 0 0 1 23.38,12.48 1.53,1.53 0 0 0 22.65,12 h -0.09 v 0 A 2.67,2.67 0 0 0 24,13 h 0.13 a 0.12,0.12 0 0 0 0.09,0 0.08,0.08 0 0 0 0,-0.07 0.66,0.66 0 0 0 -0.51,-0.62 c 0,0.12 0.06,0.2 0,0.26 a 0.19,0.19 0 0 1 -0.12,0.07"
         transform="translate(-2.52,-6.68)"
         id="path111" /><path
         class="cls-1"
         d="m 24.57,33.78 a 0.28,0.28 0 0 0 0.13,0 v 0 a 0.21,0.21 0 0 1 -0.13,-0.16 c 0,-0.11 0,-0.24 0.16,-0.39 0.79,-0.41 1,-0.77 0.93,-1.4 a 0.08,0.08 0 0 0 0,-0.07 0.21,0.21 0 0 0 -0.16,-0.06 0.23,0.23 0 0 0 -0.22,0.14 1.35,1.35 0 0 1 -0.43,0.87 4.66,4.66 0 0 1 -2.22,0.67 0.74,0.74 0 0 0 -0.73,0.43 l -0.27,0.69 a 0.31,0.31 0 0 1 -0.32,0.28 l -0.68,-0.06 a 0.25,0.25 0 0 1 -0.18,-0.08 0.18,0.18 0 0 1 0,-0.16 5.19,5.19 0 0 1 0.23,-1.67 0.61,0.61 0 0 0 -0.06,-0.51 0.1,0.1 0 0 0 -0.07,-0.06 c 0,0 0,0 -0.08,0.11 a 5.2,5.2 0 0 0 -0.39,2.32 c 0,0.21 0.05,0.33 0.24,0.37 l 1.41,0.11 c 0.21,0 0.3,-0.08 0.31,-0.25 0.07,-0.72 0.31,-1.09 0.7,-1.11 l 1.12,-0.18 h 0.09 a 0.29,0.29 0 0 1 0.27,0.1 0.72,0.72 0 0 0 0.37,0.13"
         transform="translate(-2.52,-6.68)"
         id="path112" /><path
         class="cls-1"
         d="m 23.8,31.36 h -0.06 c -0.2,0 -0.25,0.17 -0.24,0.26 a 0.19,0.19 0 0 0 0.17,0.18 0.21,0.21 0 0 0 0.11,0 1.13,1.13 0 0 1 0.45,-0.31 1,1 0 0 0 -0.43,-0.1"
         transform="translate(-2.52,-6.68)"
         id="path113" /><path
         class="cls-1"
         d="m 23.49,32.71 h 0.1 a 0.87,0.87 0 0 0 0.4,-0.25 1.75,1.75 0 0 1 -0.56,-0.1 h -0.05 a 0.15,0.15 0 0 0 -0.15,0.15 0.23,0.23 0 0 0 0.07,0.15 0.27,0.27 0 0 0 0.19,0.07"
         transform="translate(-2.52,-6.68)"
         id="path114" /><path
         class="cls-1"
         d="m 22.93,31.65 a 1.21,1.21 0 0 1 0.33,-0.44 h -0.12 a 1.12,1.12 0 0 0 -0.39,0.08 c -0.13,0.08 -0.19,0.19 -0.16,0.29 a 0.22,0.22 0 0 0 0.2,0.16 0.17,0.17 0 0 0 0.14,-0.08"
         transform="translate(-2.52,-6.68)"
         id="path115" /><path
         class="cls-1"
         d="m 21.2,33.9 a 0.13,0.13 0 0 0 0.14,-0.11 1,1 0 0 1 0.18,-0.52 0.9,0.9 0 0 0 -0.44,0.2 0.29,0.29 0 0 0 -0.07,0.31 0.22,0.22 0 0 0 0.19,0.12"
         transform="translate(-2.52,-6.68)"
         id="path116" /><path
         class="cls-1"
         d="m 27.22,33.36 a 1.29,1.29 0 0 1 0.66,-0.2 1.27,1.27 0 0 0 -0.63,-0.3 c -0.55,0 -0.4,0.67 0,0.5"
         transform="translate(-2.52,-6.68)"
         id="path117" /><path
         class="cls-1"
         d="m 28,32.46 a 1.37,1.37 0 0 1 0.13,-0.53 0.85,0.85 0 0 0 -0.42,0.22 0.27,0.27 0 0 0 -0.06,0.31 0.22,0.22 0 0 0 0.2,0.13 0.16,0.16 0 0 0 0.15,-0.13"
         transform="translate(-2.52,-6.68)"
         id="path118" /><path
         class="cls-1"
         d="m 29,32.18 h -0.13 a 0.92,0.92 0 0 0 -0.38,0.08 c -0.13,0.08 -0.19,0.2 -0.15,0.3 a 0.21,0.21 0 0 0 0.19,0.16 0.16,0.16 0 0 0 0.14,-0.08 1.11,1.11 0 0 1 0.33,-0.46"
         transform="translate(-2.52,-6.68)"
         id="path119" /><path
         class="cls-1"
         d="m 28.37,33.37 h 0.1 a 1,1 0 0 0 0.42,-0.25 1.9,1.9 0 0 1 -0.58,-0.11 h -0.06 a 0.15,0.15 0 0 0 -0.15,0.16 0.18,0.18 0 0 0 0.07,0.15 0.27,0.27 0 0 0 0.2,0.07"
         transform="translate(-2.52,-6.68)"
         id="path120" /><path
         class="cls-1"
         d="m 22.14,32.58 a 0.22,0.22 0 0 0 0.2,0.15 0.31,0.31 0 0 0 0.23,-0.15 1,1 0 0 0 0.12,-0.46 1.77,1.77 0 0 1 -0.47,0.28 0.16,0.16 0 0 0 -0.08,0.18"
         transform="translate(-2.52,-6.68)"
         id="path121" /><path
         class="cls-1"
         d="m 19.57,31.27 a 1.06,1.06 0 0 0 -0.58,0.32 1.21,1.21 0 0 1 0.65,0.18 c 0.39,0.15 0.47,-0.51 -0.07,-0.5"
         transform="translate(-2.52,-6.68)"
         id="path122" /><path
         class="cls-1"
         d="m 18.19,30.81 a 0.18,0.18 0 0 0 0.16,-0.15 c 0,-0.11 0,-0.22 -0.17,-0.3 A 1,1 0 0 0 17.82,30.3 h -0.13 a 1.15,1.15 0 0 1 0.36,0.42 0.19,0.19 0 0 0 0.14,0.08"
         transform="translate(-2.52,-6.68)"
         id="path123" /><path
         class="cls-1"
         d="m 17.38,30.78 c 0,-0.11 -0.07,-0.24 -0.29,-0.26 a 0.85,0.85 0 0 0 -0.44,0.13 1.23,1.23 0 0 1 0.48,0.25 0.17,0.17 0 0 0 0.11,0 0.15,0.15 0 0 0 0.14,-0.16"
         transform="translate(-2.52,-6.68)"
         id="path124" /><path
         class="cls-1"
         d="m 17.59,31.46 a 1.08,1.08 0 0 1 -0.62,0.18 1.19,1.19 0 0 0 0.59,0.3 c 0.54,0 0.4,-0.63 0,-0.48"
         transform="translate(-2.52,-6.68)"
         id="path125" /><path
         class="cls-1"
         d="m 18.33,31.48 a 0.34,0.34 0 0 0 0.16,0 0.19,0.19 0 0 0 0.2,-0.19 0.16,0.16 0 0 0 -0.17,-0.17 h -0.21 a 1.34,1.34 0 0 1 -0.33,0 1,1 0 0 0 0.35,0.34"
         transform="translate(-2.52,-6.68)"
         id="path126" /><path
         class="cls-1"
         d="m 14.65,30.66 a 0.38,0.38 0 0 0 0.19,0.06 0.19,0.19 0 0 0 0.19,-0.18 c 0,-0.05 0,-0.17 -0.2,-0.18 a 1.12,1.12 0 0 1 -0.47,-0.09 0.91,0.91 0 0 0 0.29,0.39"
         transform="translate(-2.52,-6.68)"
         id="path127" /><path
         class="cls-1"
         d="m 13.3,30.79 a 0.31,0.31 0 0 0 0.18,0 0.19,0.19 0 0 0 0.19,-0.18 0.17,0.17 0 0 0 -0.16,-0.18 H 13.4 a 1,1 0 0 1 -0.4,-0.07 1,1 0 0 0 0.3,0.38"
         transform="translate(-2.52,-6.68)"
         id="path128" /><path
         class="cls-1"
         d="m 12.73,29.59 h -0.09 a 1,1 0 0 0 -0.38,0.09 1.29,1.29 0 0 1 0.3,0.22 v 0 a 0.23,0.23 0 0 0 0.11,0.07 h 0.09 a 0.19,0.19 0 0 0 0.19,-0.16 c 0,-0.11 -0.07,-0.2 -0.23,-0.24"
         transform="translate(-2.52,-6.68)"
         id="path129" /><path
         class="cls-1"
         d="m 10.34,28.06 v 0 a 0.21,0.21 0 0 0 0.21,0.18 0.14,0.14 0 0 0 0.12,-0.06 0.3,0.3 0 0 0 0,-0.27 1,1 0 0 0 -0.33,-0.36 1.09,1.09 0 0 1 0,0.37 c 0,0.1 0,0.12 0,0.13"
         transform="translate(-2.52,-6.68)"
         id="path130" /><path
         class="cls-1"
         d="m 9.91,27.58 a 1.07,1.07 0 0 0 -0.33,-0.35 1.35,1.35 0 0 1 0,0.36 0.35,0.35 0 0 0 0,0.14 v 0 a 0.19,0.19 0 0 0 0.2,0.17 0.14,0.14 0 0 0 0.12,-0.06 c 0,0 0.06,-0.11 0,-0.27"
         transform="translate(-2.52,-6.68)"
         id="path131" /><path
         class="cls-1"
         d="M 9.8,28.26 H 9.73 A 1.19,1.19 0 0 1 9.29,28.1 0.86,0.86 0 0 0 9.58,28.58 0.33,0.33 0 0 0 9.74,28.63 0.2,0.2 0 0 0 9.92,28.47 0.17,0.17 0 0 0 9.8,28.27"
         transform="translate(-2.52,-6.68)"
         id="path132" /><path
         class="cls-1"
         d="m 10.52,29.18 a 0.32,0.32 0 0 0 0.18,0.07 0.18,0.18 0 0 0 0.18,-0.14 0.18,0.18 0 0 0 -0.11,-0.21 h -0.06 a 1.08,1.08 0 0 1 -0.43,-0.19 1,1 0 0 0 0.24,0.5"
         transform="translate(-2.52,-6.68)"
         id="path133" /><path
         class="cls-1"
         d="m 20.37,30.62 a 0.15,0.15 0 0 0 0,-0.14 2.28,2.28 0 0 1 0,-0.46 c 0,0 0,-0.1 -0.18,-0.13 h -0.1 a 0.67,0.67 0 0 0 -0.64,0.48 0.68,0.68 0 0 0 0.27,0.78 h 0.1 v 0 a 0.33,0.33 0 0 0 0,-0.16 0.25,0.25 0 0 1 0,-0.23 c 0.07,-0.09 0.2,-0.13 0.44,-0.14 z"
         transform="translate(-2.52,-6.68)"
         id="path134" /><path
         class="cls-1"
         d="m 21.22,32.41 v 0 c 0.05,0 0.1,0 0.11,0 v 0 c -0.14,-0.12 -0.21,-0.22 -0.21,-0.32 0,-0.1 0.09,-0.2 0.21,-0.3 0.12,-0.1 0.09,-0.17 0,-0.24 a 1.06,1.06 0 0 1 -0.3,-0.35 0.15,0.15 0 0 0 -0.12,-0.07 0.32,0.32 0 0 0 -0.18,0.07 0.71,0.71 0 0 0 0.43,1.27"
         transform="translate(-2.52,-6.68)"
         id="path135" /><path
         class="cls-1"
         d="m 26,32.29 v 0 a 0.54,0.54 0 0 0 0.22,0 0.61,0.61 0 0 0 0.55,-0.47 0.74,0.74 0 0 0 -0.33,-0.85 0.2,0.2 0 0 0 -0.14,-0.05 0.15,0.15 0 0 0 -0.11,0.06 2.63,2.63 0 0 1 -0.3,0.37 0.17,0.17 0 0 0 0,0.13 0.19,0.19 0 0 0 0.11,0.11 0.38,0.38 0 0 1 0.22,0.28 c 0,0.12 -0.06,0.23 -0.21,0.37"
         transform="translate(-2.52,-6.68)"
         id="path136" /><path
         class="cls-1"
         d="m 24.78,31.35 a 0.48,0.48 0 0 0 0.3,0.12 0.39,0.39 0 0 0 0.2,-0.06 1.28,1.28 0 0 0 0.72,-0.63 0.49,0.49 0 0 0 -0.1,-0.42 0.56,0.56 0 0 0 -0.47,-0.23 h -0.08 a 0.94,0.94 0 0 1 -0.73,-0.38 c -0.11,-0.12 -0.2,-0.22 -0.31,-0.24 H 24.2 c 0,0 0,0 0,0 v 0.05 a 0.84,0.84 0 0 0 0.31,0.46 3.88,3.88 0 0 0 0.59,0.33 c 0.12,0.08 0.18,0.15 0.17,0.23 -0.01,0.08 -0.08,0.17 -0.22,0.24 h -0.11 c -0.11,0 -0.21,-0.07 -0.3,-0.22 a 4,4 0 0 0 -0.67,-0.8 h -0.06 a 0.13,0.13 0 0 0 -0.08,0 0.5,0.5 0 0 0 -0.22,0.19 c -0.05,0.07 -0.09,0.1 -0.14,0.1 a 0.26,0.26 0 0 1 -0.14,-0.05 h -0.07 a 3.87,3.87 0 0 0 -1,0.78 0.28,0.28 0 0 1 -0.18,0.08 v 0 h -0.06 v 0 0 a 0.25,0.25 0 0 1 0.1,-0.23 3.34,3.34 0 0 0 0.78,-0.68 0.15,0.15 0 0 0 0,-0.09 0.2,0.2 0 0 0 -0.08,-0.12 0.66,0.66 0 0 0 -0.32,-0.07 1.22,1.22 0 0 0 -0.35,0.06 1.86,1.86 0 0 1 -0.34,0 2,2 0 0 1 -0.56,-0.08 0.39,0.39 0 0 0 -0.15,0 0.29,0.29 0 0 0 -0.27,0.15 1.89,1.89 0 0 0 -0.06,0.18 1.41,1.41 0 0 0 0,0.51 0.46,0.46 0 0 0 0.07,0.16 0.13,0.13 0 0 0 0.11,0.06 0.5,0.5 0 0 0 0.19,-0.07 0.54,0.54 0 0 0 0.27,-0.49 0.27,0.27 0 0 1 0.17,-0.16 2.31,2.31 0 0 1 0.61,-0.13 h 0.19 c 0.08,0 0.13,0.05 0.14,0.1 0.01,0.05 -0.05,0.12 -0.1,0.16 a 3.45,3.45 0 0 1 -0.84,0.41 0.43,0.43 0 0 0 -0.23,0.51 c 0,0.13 0.14,0.28 0.4,0.47 a 0.4,0.4 0 0 0 0.22,0.06 0.47,0.47 0 0 0 0.39,-0.28 c 0,-0.09 0.09,-0.16 0.25,-0.25 a 3.1,3.1 0 0 0 0.57,-0.49 0.15,0.15 0 0 1 0.11,-0.05 c 0.09,0 0.11,0.08 0.13,0.17 v 0.09 c 0.06,0.09 0.11,0.13 0.17,0.13 0.06,0 0.15,-0.06 0.24,-0.18 a 0.31,0.31 0 0 1 0.14,-0.07 H 24 c 0,0 0,0.1 0,0.2 0,0.1 0,0.07 0,0.09 a 0.13,0.13 0 0 1 0.1,0 0.37,0.37 0 0 1 0.2,0.07 z"
         transform="translate(-2.52,-6.68)"
         id="path137" /><path
         class="cls-1"
         d="m 21.13,28.23 a 0.13,0.13 0 0 0 -0.1,0 0.17,0.17 0 0 0 0,0.1 l 0.66,0.9 a 0.46,0.46 0 0 0 0.32,0.17 0.21,0.21 0 0 0 0.15,-0.07 0.3,0.3 0 0 0 0,-0.27 c 0,-0.07 -0.05,-0.1 -0.07,-0.1 v 0.05 A 0.23,0.23 0 0 1 21.95,29.09 0.2,0.2 0 0 1 21.8,29 l -0.56,-0.77 a 0.1,0.1 0 0 0 -0.1,0"
         transform="translate(-2.52,-6.68)"
         id="path138" /><path
         class="cls-1"
         d="m 23.17,29.72 a 0.19,0.19 0 0 0 0.12,0 c 0.07,0 0.15,0 0.19,-0.2 a 1.39,1.39 0 0 0 -0.1,-0.78 l -0.53,-1.18 c 0,-0.08 -0.05,-0.09 -0.06,-0.09 -0.01,0 0,0 -0.06,0.1 a 0.76,0.76 0 0 0 0.14,0.59 c 0.08,0.13 0.16,0.28 0.24,0.44 l 0.1,0.2 a 0.46,0.46 0 0 1 0,0.38 0.26,0.26 0 0 1 -0.16,0.09 0.3,0.3 0 0 1 -0.19,-0.1 l -0.52,-0.76 a 0.94,0.94 0 0 0 -0.47,-0.46 h -0.14 v 0 0.09 c 0.15,0.19 0.28,0.39 0.4,0.57 v 0 a 2.61,2.61 0 0 0 1,1.1"
         transform="translate(-2.52,-6.68)"
         id="path139" /><path
         class="cls-1"
         d="m 22.45,28.08 v 0.08 l 0.4,0.69 v 0 a 0.12,0.12 0 0 0 0.09,-0.05 0.17,0.17 0 0 0 0,-0.12 l -0.4,-0.61 v 0 z"
         transform="translate(-2.52,-6.68)"
         id="path140" /><path
         class="cls-1"
         d="m 21.87,28.86 v 0 a 0.1,0.1 0 0 0 0.08,-0.05 0.11,0.11 0 0 0 0,-0.11 l -0.33,-0.51 v 0 0 0.07 z"
         transform="translate(-2.52,-6.68)"
         id="path141" /><path
         class="cls-1"
         d="m 24.07,29.17 a 0.53,0.53 0 0 0 0.16,0 0.1,0.1 0 0 0 0.07,0 0.12,0.12 0 0 0 0,-0.11 4.54,4.54 0 0 0 -0.3,-1.35 1.46,1.46 0 0 1 -0.11,-0.41 0.08,0.08 0 0 0 0,-0.1 h -0.06 a 0.55,0.55 0 0 0 0,0.49 l 0.27,0.69 q 0.06,0.16 0,0.24 v 0 0 a 0.18,0.18 0 0 1 -0.15,-0.1 1.54,1.54 0 0 1 -0.22,-0.64 C 23.65,27.6 23.58,27.57 23.51,27.54 h -0.08 v 0 a 2.38,2.38 0 0 0 0.78,1.52"
         transform="translate(-2.52,-6.68)"
         id="path142" /><path
         class="cls-1"
         d="m 23,23.94 a 0.19,0.19 0 0 0 -0.11,0.09 0.27,0.27 0 0 0 0,0.21 4.2,4.2 0 0 1 0.5,2.18 c 0,0.25 -0.15,0.26 -0.18,0.26 a 0.23,0.23 0 0 1 -0.2,-0.13 9.14,9.14 0 0 1 -0.49,-1 v 0 c -0.12,-0.27 -0.25,-0.57 -0.38,-0.81 0,0 0,0 0,0 0,0 0,0 -0.06,0.12 a 0.76,0.76 0 0 0 0.08,0.46 c 0.12,0.23 0.24,0.49 0.33,0.7 v 0 a 3.82,3.82 0 0 0 0.67,1.18 0.34,0.34 0 0 0 0.19,0.07 q 0.12,0 0.21,-0.18 A 4.94,4.94 0 0 0 23.07,24 c 0,0 -0.05,0 -0.06,0"
         transform="translate(-2.52,-6.68)"
         id="path143" /><path
         class="cls-1"
         d="m 23,26.05 c 0,0 0.06,0 0.07,-0.11 a 2.15,2.15 0 0 0 -0.66,-1.56 0.13,0.13 0 0 0 -0.08,0 0.06,0.06 0 0 0 -0.06,0 0.14,0.14 0 0 0 0,0.14 A 5.34,5.34 0 0 1 23,26 c 0,0 0,0.05 0.05,0.05"
         transform="translate(-2.52,-6.68)"
         id="path144" /><path
         class="cls-1"
         d="m 22.07,27.7 a 0.29,0.29 0 0 0 0.16,0 c 0.06,0 0.22,0 0.27,-0.27 a 4.23,4.23 0 0 0 -0.73,-2.36 0.14,0.14 0 0 0 -0.1,-0.05 0.24,0.24 0 0 0 -0.15,0.07 0.17,0.17 0 0 0 0,0.11 5.78,5.78 0 0 0 0.32,0.76 v 0.05 a 5.81,5.81 0 0 1 0.37,0.93 0.3,0.3 0 0 1 0,0.27 0.13,0.13 0 0 1 -0.11,0.06 0.24,0.24 0 0 1 -0.18,-0.09 5.75,5.75 0 0 1 -0.77,-1.08 v -0.06 a 5.21,5.21 0 0 0 -0.39,-0.6 c -0.06,-0.07 -0.11,-0.1 -0.15,-0.1 h -0.06 a 0.25,0.25 0 0 0 0,0.22 6.88,6.88 0 0 0 1.57,2.07"
         transform="translate(-2.52,-6.68)"
         id="path145" /><path
         class="cls-1"
         d="m 20.68,25 h -0.05 v 0.06 a 7.05,7.05 0 0 1 1,1.62 h 0.05 v 0 a 0.3,0.3 0 0 0 0,-0.14 A 2.72,2.72 0 0 0 20.71,25 Z"
         transform="translate(-2.52,-6.68)"
         id="path146" /><path
         class="cls-1"
         d="m 21,27.91 c 0.16,0 0.25,-0.14 0.25,-0.36 a 3.36,3.36 0 0 0 -1.11,-1.86 0.24,0.24 0 0 0 -0.12,-0.05 v 0 0 a 9.89,9.89 0 0 1 1,1.4 0.37,0.37 0 0 1 0,0.34 0.2,0.2 0 0 1 -0.16,0.09 0.25,0.25 0 0 1 -0.2,-0.1 A 16.07,16.07 0 0 0 19.09,25.5 0.14,0.14 0 0 0 19,25.45 h -0.06 a 0.14,0.14 0 0 0 0,0.11 24.28,24.28 0 0 1 1.69,2.06 0.52,0.52 0 0 0 0.34,0.18"
         transform="translate(-2.52,-6.68)"
         id="path147" /><path
         class="cls-1"
         d="m 19.32,25.31 v 0 a 0.2,0.2 0 0 0 0,0.18 l 1.29,1.57 h 0.08 v 0 a 0.19,0.19 0 0 0 0,-0.11 l -1.3,-1.65 z"
         transform="translate(-2.52,-6.68)"
         id="path148" /><path
         class="cls-1"
         d="m 24.53,13.07 a 1.93,1.93 0 0 0 0.76,0.4 c 0,0 0.07,0 0.08,0 a 0.31,0.31 0 0 0 0.1,-0.27 0.46,0.46 0 0 0 -0.29,-0.29 v 0 a 0.31,0.31 0 0 1 -0.05,0.19 0.25,0.25 0 0 1 -0.16,0.06 0.24,0.24 0 0 1 -0.25,-0.21 0.57,0.57 0 0 0 -0.27,-0.37 v 0 a 0.48,0.48 0 0 1 0.06,0.35 0.18,0.18 0 0 0 0,0.18"
         transform="translate(-2.52,-6.68)"
         id="path149" /><path
         class="cls-1"
         d="m 22.87,14 h -0.18 v 0 0.06 a 0.84,0.84 0 0 0 0.53,0.23 0.28,0.28 0 0 0 0.24,-0.12 c 0.07,-0.11 0,-0.32 -0.13,-0.57 v 0 0 0 c 0,0 0,-0.08 -0.24,-0.28 v 0 c 0,0.06 -0.07,0.09 -0.17,0.11 h -0.2 -0.27 v 0 a 0.18,0.18 0 0 0 0.14,0.13 c 0.48,0 0.65,0.16 0.65,0.3 0,0.14 -0.13,0.22 -0.3,0.22"
         transform="translate(-2.52,-6.68)"
         id="path150" /><path
         class="cls-1"
         d="m 23.07,14.83 c 0.36,0.11 0.46,0.35 0.43,0.52 a 0.26,0.26 0 0 1 -0.24,0.25 0.42,0.42 0 0 1 -0.27,-0.13 0.24,0.24 0 0 0 0,0.16 0.87,0.87 0 0 0 0.67,0.47 0.2,0.2 0 0 0 0.19,-0.09 0.37,0.37 0 0 0 0,-0.37 2,2 0 0 1 -0.22,-1 0.13,0.13 0 0 0 0,-0.11 l -0.11,0.05 a 0.42,0.42 0 0 1 -0.22,0.05 0.73,0.73 0 0 1 -0.4,-0.12 l -0.05,0.05 c 0,0 0,0 0,0.07 z"
         transform="translate(-2.52,-6.68)"
         id="path151" /><path
         class="cls-1"
         d="m 21.8,20.43 a 0.27,0.27 0 0 0 0,0.22 11.57,11.57 0 0 1 0.68,1.06 v 0.05 c 0.18,0.3 0.32,0.54 0.43,0.7 a 0.21,0.21 0 0 0 0.13,0.09 c 0.05,0 0.1,-0.09 0.1,-0.2 a 5.18,5.18 0 0 0 -1.11,-2.56 v 0 a 0.17,0.17 0 0 0 0,0.18 6,6 0 0 1 0.74,1.43 0.21,0.21 0 0 1 0,0.19 v 0 0 c 0,0 -0.1,0 -0.14,-0.12 a 6.63,6.63 0 0 0 -0.68,-1.11 v 0 z"
         transform="translate(-2.52,-6.68)"
         id="path152" /><path
         class="cls-1"
         d="m 21.12,21.79 a 0.07,0.07 0 0 0 -0.07,0 0.24,0.24 0 0 0 0,0.23 16.62,16.62 0 0 0 0.95,1.75 0.53,0.53 0 0 0 0.42,0.26 0.43,0.43 0 0 0 0.36,-0.22 1.16,1.16 0 0 0 0,-1 10.5,10.5 0 0 0 -1.1,-1.85 0.09,0.09 0 0 0 -0.08,0 0.07,0.07 0 0 0 -0.07,0 0.23,0.23 0 0 0 0,0.21 9.31,9.31 0 0 1 1,1.87 0.54,0.54 0 0 1 0,0.51 0.25,0.25 0 0 1 -0.22,0.12 0.28,0.28 0 0 1 -0.25,-0.15 10.51,10.51 0 0 1 -0.87,-1.63 0.16,0.16 0 0 0 -0.09,-0.05"
         transform="translate(-2.52,-6.68)"
         id="path153" /><path
         class="cls-1"
         d="m 22.15,23 a 0.14,0.14 0 0 0 0.12,-0.06 0.17,0.17 0 0 0 0,-0.18 l -0.79,-1.39 a 0.16,0.16 0 0 0 -0.05,-0.07 0.5,0.5 0 0 0 0,0.32 L 22.09,23 h 0.06"
         transform="translate(-2.52,-6.68)"
         id="path154" /><path
         class="cls-1"
         d="m 21.27,24.9 a 0.54,0.54 0 0 0 0.46,-0.28 0.79,0.79 0 0 0 -0.05,-0.77 10.34,10.34 0 0 1 -0.79,-1.66 c 0,-0.09 -0.08,-0.14 -0.14,-0.14 a 0.2,0.2 0 0 0 -0.13,0.09 0.11,0.11 0 0 0 0,0.12 16,16 0 0 0 0.84,1.74 0.42,0.42 0 0 1 0,0.44 0.25,0.25 0 0 1 -0.23,0.14 0.38,0.38 0 0 1 -0.23,-0.18 6.2,6.2 0 0 1 -0.66,-1 l -0.06,-0.1 c -0.13,-0.21 -0.26,-0.44 -0.4,-0.63 a 0.14,0.14 0 0 0 -0.12,-0.06 0.14,0.14 0 0 0 -0.13,0.09 0.12,0.12 0 0 0 0,0.14 l 1.12,1.74 a 0.64,0.64 0 0 0 0.52,0.3"
         transform="translate(-2.52,-6.68)"
         id="path155" /><path
         class="cls-1"
         d="M 20.12,22.48 21,24 a 0.19,0.19 0 0 0 0.15,0.09 v 0 c 0,0 0,-0.08 0,-0.25 l -0.89,-1.65 c 0,0 0,0 -0.06,0 v 0 0.08 a 0.16,0.16 0 0 1 0,0.12 0.18,0.18 0 0 0 0,0.18"
         transform="translate(-2.52,-6.68)"
         id="path156" /><path
         class="cls-1"
         d="m 20.3,25.29 a 0.61,0.61 0 0 0 0,-0.51 7.31,7.31 0 0 0 -1,-1.77 l -0.07,-0.1 a 0.25,0.25 0 0 0 -0.2,-0.09 c -0.05,0 -0.09,0 -0.09,0 a 0.11,0.11 0 0 0 0,0.07 10.87,10.87 0 0 1 1,1.73 0.3,0.3 0 0 1 0,0.29 0.2,0.2 0 0 1 -0.18,0.12 0.25,0.25 0 0 1 -0.19,-0.1 16.7,16.7 0 0 1 -1.47,-1.84 0.17,0.17 0 0 0 -0.12,-0.05 0.13,0.13 0 0 0 -0.11,0.06 0.17,0.17 0 0 0 0,0.15 12.65,12.65 0 0 0 1.55,2 0.59,0.59 0 0 0 0.44,0.17 0.36,0.36 0 0 0 0.29,-0.12"
         transform="translate(-2.52,-6.68)"
         id="path157" /><path
         class="cls-1"
         d="m 18.4,22.82 a 4.85,4.85 0 0 0 1.17,1.65 0.09,0.09 0 0 0 0.07,0 v 0 c 0,0 0,-0.06 0,-0.12 -0.39,-0.61 -0.78,-1.17 -1.16,-1.65 h -0.06 a 0.13,0.13 0 0 0 0,0.11"
         transform="translate(-2.52,-6.68)"
         id="path158" /><path
         class="cls-1"
         d="m 18.84,25.29 a 0.17,0.17 0 0 0 0.12,0 c 0,0 0,-0.07 0,-0.2 a 8.67,8.67 0 0 0 -1.37,-1.85 0.19,0.19 0 0 0 -0.13,-0.07 v 0 a 0.14,0.14 0 0 0 0,0.07 c 0.3,0.38 0.65,0.82 0.91,1.23 a 0.17,0.17 0 0 1 0,0.17 v 0 0 0 a 0.27,0.27 0 0 1 -0.14,-0.06 21.47,21.47 0 0 1 -1.41,-1.82 0.14,0.14 0 0 0 -0.1,-0.06 0.18,0.18 0 0 0 -0.14,0.08 0.12,0.12 0 0 0 0,0.13 l 0.09,0.13 c 0.57,0.86 1.29,1.92 2.19,2.2 z"
         transform="translate(-2.52,-6.68)"
         id="path159" /><path
         class="cls-1"
         d="m 20.73,18.57 a 0.91,0.91 0 0 0 -0.09,0.17 c 0,0.2 0,0.25 0,0.26 v 0 h 0.07 a 1,1 0 0 0 0.4,-0.81 L 21,16.81 c 0,-0.09 -0.06,-0.14 -0.1,-0.14 h -0.07 a 0.23,0.23 0 0 0 0,0.17 v 0.3 c 0,0.16 0,0.31 0,0.46 0,0.15 0,0.3 0,0.44 a 0.54,0.54 0 0 1 -0.12,0.48 z"
         transform="translate(-2.52,-6.68)"
         id="path160" /><path
         class="cls-1"
         d="m 19.69,17.32 a 0.16,0.16 0 0 0 -0.09,0.08 4.38,4.38 0 0 0 -0.22,1.71 0.39,0.39 0 0 0 0.39,0.33 0.81,0.81 0 0 0 0.68,-0.59 6.53,6.53 0 0 0 0.1,-1.82 c 0,-0.11 -0.05,-0.18 -0.1,-0.18 h -0.06 a 0.2,0.2 0 0 0 -0.05,0.14 4.47,4.47 0 0 1 -0.13,1.68 c -0.14,0.23 -0.28,0.36 -0.4,0.36 -0.12,0 -0.17,0 -0.19,-0.26 a 6.42,6.42 0 0 1 0.13,-1.39 c 0,0 0,-0.06 -0.06,-0.1"
         transform="translate(-2.52,-6.68)"
         id="path161" /><path
         class="cls-1"
         d="m 20,18.58 a 3.75,3.75 0 0 0 0.06,-1.46 c 0,-0.06 0,-0.09 0,-0.09 a 0.17,0.17 0 0 0 -0.07,0.11 l -0.06,1.45 c 0,0.06 0,0.06 0.05,0.06 0.05,0 0.06,0 0.07,-0.07"
         transform="translate(-2.52,-6.68)"
         id="path162" /><path
         class="cls-1"
         d="m 18.15,19.41 a 0.2,0.2 0 0 1 -0.19,-0.09 c -0.05,-0.08 0,-0.18 0,-0.35 l 0.3,-1.07 a 0.16,0.16 0 0 0 0,-0.1 H 18.2 c 0,0 -0.08,0 -0.11,0.11 -0.07,0.25 -0.17,0.49 -0.27,0.75 -0.1,0.26 -0.13,0.35 -0.21,0.58 a 0.37,0.37 0 0 0 0,0.27 0.65,0.65 0 0 0 0.55,0.2 v 0 c 0.54,-0.07 0.82,-0.27 0.85,-0.61 l 0.22,-1.42 a 0.2,0.2 0 0 0 0,-0.14 h -0.07 c 0,0 -0.1,0.05 -0.13,0.16 l -0.18,1.08 c -0.08,0.45 -0.3,0.67 -0.66,0.68"
         transform="translate(-2.52,-6.68)"
         id="path163" /><path
         class="cls-1"
         d="m 18.67,17.58 a 0.14,0.14 0 0 0 -0.11,0.11 9.51,9.51 0 0 1 -0.21,1.18 0.11,0.11 0 0 0 0,0.08 h 0.05 c 0.05,0 0.1,0 0.14,-0.14 a 8.2,8.2 0 0 0 0.16,-1.17 c 0,-0.08 0,-0.08 0,-0.08"
         transform="translate(-2.52,-6.68)"
         id="path164" /><path
         class="cls-1"
         d="m 16.6,19.45 a 0.88,0.88 0 0 0 0.32,0.08 0.56,0.56 0 0 0 0.47,-0.32 l 0.4,-1.14 c 0,-0.1 0,-0.13 0,-0.15 0,-0.02 0,0 -0.05,0 a 6.13,6.13 0 0 1 -0.53,1.14 0.33,0.33 0 0 1 -0.26,0.16 0.23,0.23 0 0 1 -0.2,-0.11 0.26,0.26 0 0 1 0,-0.28 8.13,8.13 0 0 0 0.44,-1 0.11,0.11 0 0 0 0,-0.12 0.08,0.08 0 0 0 -0.07,0.07 7.58,7.58 0 0 1 -0.56,1.1 0.46,0.46 0 0 0 -0.08,0.35 0.33,0.33 0 0 0 0.17,0.18"
         transform="translate(-2.52,-6.68)"
         id="path165" /><path
         class="cls-1"
         d="M 17.34,17.93 A 4.27,4.27 0 0 1 16.95,18.85 0.11,0.11 0 0 0 17,19 v 0 a 0.12,0.12 0 0 0 0.09,-0.06 2.45,2.45 0 0 0 0.4,-0.93 0.13,0.13 0 0 0 -0.07,-0.13 c 0,0 0,0 -0.06,0.07"
         transform="translate(-2.52,-6.68)"
         id="path166" /><path
         class="cls-1"
         d="m 16.69,17.88 c 0,0 0,0 0,0.05 a 6,6 0 0 1 -0.44,0.74 0.13,0.13 0 0 0 0,0.1 h 0.09 a 2.2,2.2 0 0 0 0.46,-0.8 c 0,0 0,0 0,-0.09"
         transform="translate(-2.52,-6.68)"
         id="path167" /><path
         class="cls-1"
         d="m 15.67,19 a 0.53,0.53 0 0 0 0.37,0.25 0.17,0.17 0 0 0 0.13,-0.08 V 19.1 L 16,19 a 0.23,0.23 0 0 1 -0.07,-0.1 0.35,0.35 0 0 1 0.07,-0.21 2.42,2.42 0 0 0 0.41,-0.55 0.19,0.19 0 0 0 0,-0.17 v 0 c 0,0 -0.05,0 -0.07,0.07 a 6.42,6.42 0 0 1 -0.58,0.73 c -0.09,0.12 -0.11,0.2 -0.06,0.28"
         transform="translate(-2.52,-6.68)"
         id="path168" /><path
         class="cls-1"
         d="m 15.57,19.44 a 1.8,1.8 0 0 0 -0.37,1.43 3.74,3.74 0 0 0 0.25,0.66 3.15,3.15 0 0 1 0.18,0.41 1.5,1.5 0 0 1 0.1,0.63 c 0,0 0,0.1 0.17,0.1 a 1.24,1.24 0 0 0 0.23,0 0.59,0.59 0 0 0 0.35,-0.26 0.42,0.42 0 0 0 0,-0.33 C 16,21 16,20.32 16.39,19.76 a 0.17,0.17 0 0 0 0,-0.14 0.11,0.11 0 0 0 -0.1,-0.06 0.16,0.16 0 0 0 -0.13,0.07 1.16,1.16 0 0 0 -0.33,0.92 2.57,2.57 0 0 0 0.15,0.72 c 0.05,0.17 0.11,0.36 0.15,0.56 a 0.18,0.18 0 0 1 0,0.19 0.11,0.11 0 0 1 -0.1,0.06 c 0,0 -0.12,0 -0.18,-0.18 -0.06,-0.18 -0.12,-0.36 -0.17,-0.5 v 0 a 2.47,2.47 0 0 1 -0.19,-0.73 1.59,1.59 0 0 1 0.33,-1.08 v 0 c 0,-0.06 0,-0.11 0,-0.14 a 0.13,0.13 0 0 0 -0.12,-0.06 0.17,0.17 0 0 0 -0.14,0.07"
         transform="translate(-2.52,-6.68)"
         id="path169" /><path
         class="cls-1"
         d="m 16.51,21.44 a 3.06,3.06 0 0 0 0.63,1.31 0.6,0.6 0 0 0 0.44,0.16 0.54,0.54 0 0 0 0.56,-0.42 A 0.84,0.84 0 0 0 18.08,22.11 0.58,0.58 0 0 1 18,22 a 3.37,3.37 0 0 1 0,-1.81 0.11,0.11 0 0 0 0,-0.11 0.16,0.16 0 0 0 -0.11,0 0.19,0.19 0 0 0 -0.16,0.08 3.22,3.22 0 0 0 0,2 0.4,0.4 0 0 1 -0.05,0.33 0.28,0.28 0 0 1 -0.21,0.1 0.29,0.29 0 0 1 -0.26,-0.14 2.34,2.34 0 0 1 -0.3,-2.4 0.15,0.15 0 0 0 0,-0.18 0.12,0.12 0 0 0 -0.1,-0.05 0.17,0.17 0 0 0 -0.14,0.09 2.08,2.08 0 0 0 -0.16,1.63"
         transform="translate(-2.52,-6.68)"
         id="path170" /><path
         class="cls-1"
         d="m 17.46,19.81 a 0.11,0.11 0 0 0 -0.09,0 0.16,0.16 0 0 0 -0.13,0.1 2.43,2.43 0 0 0 0.09,2.07 0.1,0.1 0 0 0 0.07,0.05 v 0 a 0.23,0.23 0 0 0 0,-0.16 2.45,2.45 0 0 1 0,-1.88 0.09,0.09 0 0 0 0,-0.11"
         transform="translate(-2.52,-6.68)"
         id="path171" /><path
         class="cls-1"
         d="m 18.55,20 h -0.08 a 0.14,0.14 0 0 0 -0.14,0.11 3.54,3.54 0 0 0 0,1.89 0.74,0.74 0 0 0 0.74,0.57 0.63,0.63 0 0 0 0.63,-0.61 7.29,7.29 0 0 1 -0.09,-2.05 0.16,0.16 0 0 0 0,-0.12 0.18,0.18 0 0 0 -0.12,-0.05 0.11,0.11 0 0 0 -0.11,0.09 5.51,5.51 0 0 0 -0.09,1.63 c 0,0 0,0.08 0,0.13 a 0.53,0.53 0 0 1 0,0.43 0.28,0.28 0 0 1 -0.21,0.11 0.42,0.42 0 0 1 -0.33,-0.22 3.06,3.06 0 0 1 -0.1,-1.78 0.18,0.18 0 0 0 0,-0.11"
         transform="translate(-2.52,-6.68)"
         id="path172" /><path
         class="cls-1"
         d="m 19,19.83 v 0 c 0,0 -0.08,0 -0.1,0.09 a 5.62,5.62 0 0 0 -0.07,1.64 0.12,0.12 0 0 0 0.13,0.1 c 0.05,0 0.11,0 0.12,-0.14 a 7.92,7.92 0 0 1 0,-1.62 z"
         transform="translate(-2.52,-6.68)"
         id="path173" /><path
         class="cls-1"
         d="m 20.56,19.33 a 0.53,0.53 0 0 0 0,0.32 3.56,3.56 0 0 1 0.23,1.45 0.33,0.33 0 0 1 -0.3,0.28 0.28,0.28 0 0 1 -0.27,-0.2 4.86,4.86 0 0 1 -0.13,-1.37 0.14,0.14 0 0 0 -0.14,-0.12 0.13,0.13 0 0 0 -0.09,0 0.1,0.1 0 0 0 0,0.1 3.73,3.73 0 0 0 0.3,1.87 0.4,0.4 0 0 0 0.32,0.16 c 0.23,0 0.47,-0.22 0.64,-0.58 a 2.67,2.67 0 0 0 -0.41,-1.91 h -0.06 z"
         transform="translate(-2.52,-6.68)"
         id="path174" /><path
         class="cls-1"
         d="m 20.46,20.88 c 0,0 0.05,-0.07 0.05,-0.11 -0.07,-0.39 -0.12,-0.75 -0.16,-1.13 0,-0.09 -0.05,-0.11 -0.07,-0.11 -0.02,0 -0.05,0 -0.05,0.08 a 5,5 0 0 0 0.17,1.24 z"
         transform="translate(-2.52,-6.68)"
         id="path175" /><path
         class="cls-1"
         d="m 21.38,18.69 c 0,0 0,0 0,0.09 a 1,1 0 0 0 0.1,0.42 v 0 a 1.2,1.2 0 0 1 0.11,0.47 c 0,0.12 -0.11,0.14 -0.15,0.14 h -0.08 c -0.13,0 -0.22,-0.27 -0.24,-0.38 -0.02,-0.11 0.07,-0.12 0.09,-0.09 0.02,0.03 0.07,0.1 0.09,0.08 0.02,-0.02 -0.06,-0.34 -0.06,-0.34 a 0.14,0.14 0 0 0 -0.12,0 0.29,0.29 0 0 0 -0.15,0.06 c -0.07,0 -0.11,0.08 -0.07,0.21 a 2.07,2.07 0 0 0 0.46,1 0.12,0.12 0 0 0 0.09,0 c 0.06,0 0.11,0 0.17,-0.11 a 1.29,1.29 0 0 0 -0.18,-1.47 c 0,0 -0.05,0 -0.05,0"
         transform="translate(-2.52,-6.68)"
         id="path176" /><path
         class="cls-1"
         d="m 22,18.45 h -0.06 a 0.08,0.08 0 0 0 -0.07,0 c 0,0 0,0 0,0.07 a 1,1 0 0 0 0.14,0.19 c 0.13,0.15 0.3,0.33 0.1,0.53 -0.05,0 -0.05,0 0,0.12 0.05,0.12 0.09,0.1 0.15,0.1 a 0.3,0.3 0 0 0 0.15,-0.05 l 0.26,-0.33 v -0.07 c 0,0 0,0 -0.05,0 -0.05,0 -0.27,-0.16 -0.37,-0.29 a 0.92,0.92 0 0 0 -0.29,-0.27"
         transform="translate(-2.52,-6.68)"
         id="path177" /><path
         class="cls-1"
         d="m 22.72,18.41 a 0.2,0.2 0 0 1 -0.11,0 L 22.3,18.17 h -0.06 c 0,0 -0.07,0 -0.09,0.06 a 0.11,0.11 0 0 0 0,0.1 2.33,2.33 0 0 0 0.47,0.47 0.25,0.25 0 0 0 0.16,0.07 0.24,0.24 0 0 0 0.13,-0.05 2.26,2.26 0 0 1 0.25,-0.28 1,1 0 0 0 0.33,-0.44 0.31,0.31 0 0 0 0,-0.11 c 0,0 0,0 -0.1,0 A 1,1 0 0 1 22.76,17.65 H 22.7 a 0.15,0.15 0 0 0 -0.11,0.07 c 0,0 0,0.06 0,0.1 l 0.31,0.32 a 0.23,0.23 0 0 1 0,0.24 0.24,0.24 0 0 1 -0.2,0.12"
         transform="translate(-2.52,-6.68)"
         id="path178" /><path
         class="cls-1"
         d="m 23.39,17.19 a 0.31,0.31 0 0 1 -0.22,-0.11 c 0,0 0,0 -0.05,0 -0.05,0 0,0 -0.07,0 -0.07,0 -0.12,0.23 -0.07,0.29 a 0.79,0.79 0 0 0 0.49,0.3 0.37,0.37 0 0 0 0.29,-0.2 2.15,2.15 0 0 0 0.2,-0.76 0.19,0.19 0 0 0 0,-0.12 c 0,0 -0.07,0 -0.1,-0.05 v 0 H 23.8 a 3.19,3.19 0 0 1 -0.59,-0.37 v 0 a 0.23,0.23 0 0 0 0.05,0.25 l 0.29,0.24 a 0.39,0.39 0 0 1 0.08,0.4 0.2,0.2 0 0 1 -0.18,0.13"
         transform="translate(-2.52,-6.68)"
         id="path179" /><path
         class="cls-1"
         d="m 29.22,31.47 a 0.3,0.3 0 0 0 0,-0.29 c 0,-0.07 -0.06,-0.08 -0.2,-0.1 -0.14,-0.02 -0.42,0 -0.43,-0.4 v -0.13 h -0.06 a 0.62,0.62 0 0 0 -0.37,0.36 0.8,0.8 0 0 1 -0.11,0.19 0.51,0.51 0 0 1 -0.3,0.14 c -0.13,0 -0.23,-0.07 -0.32,-0.23 -0.09,-0.16 0,-0.08 0,-0.09 l -0.07,0.09 A 0.49,0.49 0 0 0 27.29,31.37 1,1 0 0 1 27.16,32 c -0.27,0.46 -0.57,0.69 -0.92,0.7 h -0.25 -0.05 a 0.14,0.14 0 0 0 -0.12,0.11 c 0,0.06 0,0.12 0,0.13 a 1.37,1.37 0 0 0 0.47,0.08 1.12,1.12 0 0 0 0.89,-0.5 c 0.38,-0.53 0.85,-1.2 1.39,-1.21 a 0.59,0.59 0 0 1 0.34,0.08 v 0 a 0.27,0.27 0 0 0 0.21,0.15 0.1,0.1 0 0 0 0.1,-0.06"
         transform="translate(-2.52,-6.68)"
         id="path180" /><path
         class="cls-1"
         d="m 30.51,33.1 a 0.33,0.33 0 0 1 -0.32,-0.11 0.36,0.36 0 0 1 0,-0.36 V 32.58 H 30.1 c -0.28,0.05 -0.34,0.14 -0.35,0.3 a 0.23,0.23 0 0 1 -0.16,0.28 4.53,4.53 0 0 1 -1.94,0.51 5.16,5.16 0 0 1 -1.49,-0.24 c -0.29,-0.08 -0.53,-0.15 -0.78,-0.2 -0.25,-0.05 -0.29,0.06 -0.31,0.13 a 0.11,0.11 0 0 0 0.05,0.11 l 0.58,0.2 c 0.08,0 0.32,0.07 0.33,0.3 0.01,0.23 0.2,0.4 0.37,0.4 h 0.07 a 0.34,0.34 0 0 1 0,-0.26 0.13,0.13 0 0 1 0.13,-0.1 h 0.12 a 5.14,5.14 0 0 0 1,0.1 4.48,4.48 0 0 0 0.65,-0.06 h 0.08 a 0.2,0.2 0 0 1 0.15,0.07 1,1 0 0 0 0.55,0.23 0.44,0.44 0 0 0 0.25,-0.1 v 0 c -0.1,0 -0.18,-0.11 -0.24,-0.25 -0.06,-0.14 0,-0.17 0.14,-0.2 a 1.61,1.61 0 0 0 0.61,-0.3 0.26,0.26 0 0 1 0.22,-0.08 v 0 c 0.39,0 0.48,-0.13 0.5,-0.21 v -0.09 h -0.16"
         transform="translate(-2.52,-6.68)"
         id="path181" /><path
         class="cls-1"
         d="m 30.6,31.7 a 0.86,0.86 0 0 1 -0.67,0.35 0.68,0.68 0 0 1 -0.29,0 0.32,0.32 0 0 1 -0.12,-0.22 c 0,-0.14 0.11,-0.3 0.34,-0.5 a 0.67,0.67 0 0 1 0.38,-0.16 0.38,0.38 0 0 1 0.33,0.16 0.43,0.43 0 0 1 0,0.42 m -0.41,-0.79 a 0.67,0.67 0 0 0 -0.41,0.15 c -0.56,0.47 -0.68,0.83 -0.4,1.2 a 1.07,1.07 0 0 0 0.53,0.15 1.43,1.43 0 0 0 0.91,-0.43 0.62,0.62 0 0 0 0,-0.68 0.73,0.73 0 0 0 -0.65,-0.39"
         transform="translate(-2.52,-6.68)"
         id="path182" /><path
         class="cls-1"
         d="m 31.88,31.49 c 0,-0.12 -0.07,-0.12 -0.11,-0.12 h -0.06 a 2.15,2.15 0 0 0 -0.36,0.11 0.1,0.1 0 0 0 -0.09,0.1 0.13,0.13 0 0 0 0.07,0.15 2.51,2.51 0 0 0 0.44,0.11 v 0 a 0.06,0.06 0 0 0 0.06,0 c 0,0 0,0 0,-0.08 a 0.53,0.53 0 0 1 0,-0.25"
         transform="translate(-2.52,-6.68)"
         id="path183" /><path
         class="cls-1"
         d="m 31.68,30.93 a 2.9,2.9 0 0 1 -0.22,-0.27 c 0,0 -0.06,-0.06 -0.08,-0.06 -0.02,0 -0.05,0 -0.1,0.06 A 0.84,0.84 0 0 0 31,31 a 0.22,0.22 0 0 0 0,0.2 0.23,0.23 0 0 0 0.17,0.07 0.83,0.83 0 0 0 0.44,-0.19 c 0.05,-0.05 0.05,-0.07 0,-0.11"
         transform="translate(-2.52,-6.68)"
         id="path184" /><path
         class="cls-1"
         d="m 30.91,30.23 c -0.06,-0.05 -0.09,-0.06 -0.12,-0.06 -0.03,0 0,0 -0.08,0.07 a 1,1 0 0 0 -0.11,0.25 0.27,0.27 0 0 0 0,0.2 c 0,0 0.07,0 0.14,0 h 0.09 a 0.64,0.64 0 0 0 0.3,-0.22 v -0.05 a 0.23,0.23 0 0 0 -0.07,-0.08 1.67,1.67 0 0 1 -0.2,-0.15"
         transform="translate(-2.52,-6.68)"
         id="path185" /><path
         class="cls-1"
         d="m 32.23,30 a 0.21,0.21 0 0 0 -0.21,0.15 0.34,0.34 0 0 1 -0.27,0.35 c -0.07,0 0,0.14 0,0.14 0,0 0.09,0.17 0.17,0.16 h 0.06 a 0.41,0.41 0 0 1 0.34,-0.17 h 0.17 A 0.17,0.17 0 0 0 32.65,30.51 0.35,0.35 0 0 0 32.55,30.14 0.38,0.38 0 0 0 32.27,30"
         transform="translate(-2.52,-6.68)"
         id="path186" /><path
         class="cls-1"
         d="m 17.56,32.83 c 0,0.1 -0.06,0.17 -0.22,0.23 v 0 a 0.47,0.47 0 0 0 0.16,0 0.68,0.68 0 0 0 0.38,-0.15 0.76,0.76 0 0 1 0.45,-0.17 1.07,1.07 0 0 1 0.36,0.08 c 0.14,0.06 0.21,0.12 0.23,0.2 A 0.2,0.2 0 0 1 18.85,33.2 H 19 c 0.22,0 0.38,-0.13 0.48,-0.4 a 0.78,0.78 0 0 1 0.46,-0.3 0.64,0.64 0 0 0 0.16,-0.37 c 0,0 0,-0.09 -0.06,-0.12 H 19.97 A 2.67,2.67 0 0 1 18.66,32.36 7,7 0 0 1 16,31.76 0.51,0.51 0 0 1 15.71,31.15 l 0.34,-1 a 0.81,0.81 0 0 1 0.77,-0.49 4.8,4.8 0 0 1 2.35,1 h 0.05 v 0 a 0.26,0.26 0 0 0 0,-0.25 L 18.84,30.1 a 0.41,0.41 0 0 1 -0.16,-0.33 c 0,-0.34 -0.17,-0.43 -0.31,-0.49 v 0 a 0.35,0.35 0 0 0 0,0.06 v 0.27 a 0.15,0.15 0 0 1 -0.15,0.1 H 18 a 1.21,1.21 0 0 1 -0.94,-0.55 c -0.13,-0.17 -0.22,-0.29 -0.44,-0.28 h -0.1 l 0.11,0.1 a 0.23,0.23 0 0 1 0.08,0.21 c 0,0.08 -0.09,0.14 -0.23,0.18 a 0.46,0.46 0 0 0 -0.21,0 h -0.16 a 0.44,0.44 0 0 1 -0.24,-0.09 v 0 a 0.56,0.56 0 0 0 -0.3,-0.1 0.45,0.45 0 0 0 -0.16,0 v 0 a 0.49,0.49 0 0 1 0.22,0.64 l -0.41,1.25 a 0.86,0.86 0 0 0 0.24,0.87 c 0.3,0.11 0.43,0.22 0.44,0.34 0.01,0.12 -0.06,0.16 -0.2,0.24 v 0 a 0.53,0.53 0 0 0 0.24,0.06 0.51,0.51 0 0 0 0.35,-0.16 0.55,0.55 0 0 1 0.31,-0.12 0.52,0.52 0 0 1 0.21,0 c 0.46,0.12 0.68,0.24 0.69,0.38"
         transform="translate(-2.52,-6.68)"
         id="path187" /><path
         class="cls-1"
         d="m 15.29,30.2 a 0.08,0.08 0 0 0 0.07,-0.05 0.09,0.09 0 0 0 0,-0.11 1.64,1.64 0 0 0 -0.6,-0.6 h -0.08 a 0.08,0.08 0 0 0 -0.07,0 0.1,0.1 0 0 0 0,0.12 2.37,2.37 0 0 1 0.6,0.59 z"
         transform="translate(-2.52,-6.68)"
         id="path188" /><path
         class="cls-1"
         d="m 11.26,30.19 c 0,0.3 0,0.58 -0.28,0.62 v 0 a 0.65,0.65 0 0 0 0.33,0.1 0.59,0.59 0 0 0 0.25,-0.07 0.18,0.18 0 0 1 0.13,-0.06 0.14,0.14 0 0 1 0.09,0 l 0.83,0.39 c 0.11,0.05 0.16,0.1 0.17,0.17 0.01,0.07 0,0.13 -0.14,0.2 a 0.69,0.69 0 0 0 0.24,0.05 0.68,0.68 0 0 0 0.36,-0.14 0.22,0.22 0 0 1 0.16,-0.07 h 0.51 a 4,4 0 0 0 1,-0.13 0.27,0.27 0 0 0 0.12,-0.28 A 0.1,0.1 0 0 0 15,31 h -0.06 a 3.1,3.1 0 0 1 -0.92,0.15 3.69,3.69 0 0 1 -2.11,-0.69 C 11.75,30.4 11.69,30.23 11.74,29.93 a 3.19,3.19 0 0 1 0.51,-1 0.24,0.24 0 0 1 0.2,-0.11 h 0.24 c 0.25,0 0.29,-0.1 0.29,-0.19 H 12.87 A 0.76,0.76 0 0 1 12.38,28.4 0.44,0.44 0 0 0 12.09,28.23 v 0 a 0.3,0.3 0 0 1 0,0.46 2.37,2.37 0 0 0 -0.69,1.56"
         transform="translate(-2.52,-6.68)"
         id="path189" /><path
         class="cls-1"
         d="m 13.41,29.5 v 0 a 0.92,0.92 0 0 1 0,-0.83 0.35,0.35 0 0 1 0.28,-0.14 0.34,0.34 0 0 1 0.28,0.13 0.56,0.56 0 0 1 0.05,0.5 c -0.09,0.31 -0.21,0.46 -0.38,0.47 a 0.43,0.43 0 0 1 -0.26,-0.12 m 1,-0.24 a 0.83,0.83 0 0 0 -0.13,-0.71 0.68,0.68 0 0 0 -0.54,-0.25 0.54,0.54 0 0 0 -0.39,0.16 0.83,0.83 0 0 0 -0.2,0.68 1.13,1.13 0 0 0 0.34,0.77 0.81,0.81 0 0 0 0.25,0 c 0.29,0 0.52,-0.23 0.67,-0.69"
         transform="translate(-2.52,-6.68)"
         id="path190" /><path
         class="cls-1"
         d="M 14.65,28.37 A 0.69,0.69 0 0 0 15,28.2 0.14,0.14 0 0 0 14.95,28 l -0.2,-0.15 h -0.06 c 0,0 -0.08,0 -0.12,0.09 a 0.47,0.47 0 0 0 -0.1,0.3 c 0,0.1 0.07,0.14 0.16,0.14 z"
         transform="translate(-2.52,-6.68)"
         id="path191" /><path
         class="cls-1"
         d="m 14.3,27.63 -0.25,-0.09 h -0.11 c 0,0 0,0 0,0.11 v 0.33 c 0,0.07 0.08,0.1 0.13,0.1 a 0.29,0.29 0 0 0 0.15,-0.06 l 0.15,-0.19 a 0.19,0.19 0 0 0 0,-0.15 c 0,0 -0.05,0 -0.11,-0.06"
         transform="translate(-2.52,-6.68)"
         id="path192" /><path
         class="cls-1"
         d="m 13.59,27.57 h -0.26 a 0.13,0.13 0 0 0 -0.08,0 0.4,0.4 0 0 0 0,0.19 c 0.05,0.13 0.17,0.32 0.28,0.32 0.11,0 0.09,0 0.13,-0.12 a 0.24,0.24 0 0 0 0,-0.15 V 27.7 A 0.14,0.14 0 0 0 13.6,27.55 Z"
         transform="translate(-2.52,-6.68)"
         id="path193" /><path
         class="cls-1"
         d="m 10.13,29.71 h 0.09 a 2.07,2.07 0 0 0 0.57,0.1 0.54,0.54 0 0 0 0.19,0 0.11,0.11 0 0 0 0.08,-0.12 c 0,-0.06 -0.07,-0.07 -0.11,-0.07 a 3.13,3.13 0 0 1 -2.31,-1.53 0.58,0.58 0 0 1 0,-0.63 2,2 0 0 1 0.81,-0.66 0.64,0.64 0 0 1 0.31,-0.09 0.5,0.5 0 0 1 0.34,0.13 4,4 0 0 1 1.14,1.82 c 0,0.12 0.07,0.18 0.12,0.18 0.05,0 0.1,0 0.12,-0.15 l -0.07,-0.36 a 0.36,0.36 0 0 1 0,-0.3 c 0.24,-0.31 0.26,-0.55 0,-0.76 v 0 c -0.08,0.21 -0.17,0.31 -0.27,0.32 -0.1,0.01 -0.16,-0.07 -0.23,-0.2 A 3.26,3.26 0 0 0 10.13,26.57 C 10,26.49 9.95,26.4 9.98,26.32 9.92,25.95 9.8,25.92 9.63,25.89 v 0 c 0.09,0.28 0,0.47 -0.36,0.58 a 2,2 0 0 0 -1.15,1 A 0.26,0.26 0 0 1 8,27.7 0.43,0.43 0 0 1 7.75,27.58 v 0 0.05 A 0.46,0.46 0 0 0 8,28.1 a 0.24,0.24 0 0 1 0.24,0.17 1.05,1.05 0 0 0 0.29,0.39 c 0.08,0.08 0.11,0.14 0.09,0.2 -0.02,0.06 -0.11,0.11 -0.29,0.13 v 0 a 0.59,0.59 0 0 0 0.48,0.17 h 0.08 a 0.24,0.24 0 0 1 0.18,0.07 l 0.35,0.22 c 0.1,0.05 0.14,0.1 0.14,0.16 0,0.06 -0.06,0.15 -0.2,0.23 v 0 A 0.57,0.57 0 0 0 9.64,29.93 0.38,0.38 0 0 0 10,29.8 0.18,0.18 0 0 1 10.15,29.71"
         transform="translate(-2.52,-6.68)"
         id="path194" /><path
         class="cls-1"
         d="m 8.24,25.29 c 0.08,0 0.27,0 0.39,0.34 0.12,0.34 0.13,0.48 0.06,0.59 a 0.24,0.24 0 0 1 -0.21,0.1 H 8.41 a 0.87,0.87 0 0 1 -0.5,-0.69 0.34,0.34 0 0 1 0.33,-0.34 m -0.49,0.09 a 0.73,0.73 0 0 0 0,0.62 1.17,1.17 0 0 0 0.75,0.6 H 8.58 A 0.44,0.44 0 0 0 9,26.36 1,1 0 0 0 8.87,25.43 0.79,0.79 0 0 0 8.25,25.03 0.6,0.6 0 0 0 7.74,25.38"
         transform="translate(-2.52,-6.68)"
         id="path195" /><path
         class="cls-1"
         d="M 8.35,24.84 A 0.22,0.22 0 0 0 8.51,24.73 0.8,0.8 0 0 0 8.6,24.42 c 0,-0.1 0,-0.12 -0.09,-0.15 a 0.4,0.4 0 0 0 -0.19,0 0.36,0.36 0 0 0 -0.14,0 c 0,0 -0.07,0.08 -0.06,0.18 0.01,0.1 0.12,0.4 0.23,0.4"
         transform="translate(-2.52,-6.68)"
         id="path196" /><path
         class="cls-1"
         d="m 7.93,24.89 a 0.59,0.59 0 0 0 0,-0.44 0.19,0.19 0 0 0 0,-0.08 0.21,0.21 0 0 0 -0.12,0 0.44,0.44 0 0 0 -0.33,0.17 c 0,0 0,0.08 0,0.14 0.13,0.22 0.26,0.3 0.33,0.29 a 0.08,0.08 0 0 0 0.08,0"
         transform="translate(-2.52,-6.68)"
         id="path197" /><path
         class="cls-1"
         d="m 7.31,24.71 c -0.1,0 -0.24,0.16 -0.27,0.27 a 0.08,0.08 0 0 0 0,0.09 0.57,0.57 0 0 0 0.37,0.17 0.15,0.15 0 0 0 0.14,-0.07 c 0,-0.09 0,-0.25 -0.21,-0.43 z"
         transform="translate(-2.52,-6.68)"
         id="path198" /><path
         class="cls-1"
         d="m 7.21,23.9 a 0.21,0.21 0 0 1 0.18,0.21 c 0,0.08 0.07,0.12 0.14,0.11 a 0.13,0.13 0 0 0 0.12,-0.08 0.19,0.19 0 0 0 0,-0.21 0.21,0.21 0 0 1 0,-0.23 0.29,0.29 0 0 0 0,-0.26 0.25,0.25 0 0 0 -0.2,-0.08 0.4,0.4 0 0 0 -0.37,0.23 c 0,0.14 0.1,0.25 0.21,0.31"
         transform="translate(-2.52,-6.68)"
         id="path199" /><path
         class="cls-1"
         d="m 14.72,32.63 a 0.32,0.32 0 0 1 -0.19,0.07 0.29,0.29 0 0 1 -0.27,-0.16 0.35,0.35 0 0 1 0.06,-0.37 0.24,0.24 0 0 1 0.18,-0.07 0.31,0.31 0 0 1 0.28,0.18 0.33,0.33 0 0 1 -0.06,0.35 m 0.33,0 a 0.55,0.55 0 0 0 -0.13,-0.59 0.53,0.53 0 0 0 -0.42,-0.2 0.59,0.59 0 0 0 -0.48,0.28 0.63,0.63 0 0 0 0.09,0.65 0.55,0.55 0 0 0 0.94,-0.14"
         transform="translate(-2.52,-6.68)"
         id="path200" /><path
         class="cls-1"
         d="m 12.07,34.62 a 0.36,0.36 0 0 1 -0.18,0.07 0.3,0.3 0 0 1 -0.27,-0.16 0.37,0.37 0 0 1 0.06,-0.37 0.3,0.3 0 0 1 0.18,-0.08 0.31,0.31 0 0 1 0.27,0.19 0.3,0.3 0 0 1 -0.06,0.35 m -0.21,-0.78 a 0.52,0.52 0 0 0 -0.47,0.27 0.62,0.62 0 0 0 0.09,0.65 0.54,0.54 0 0 0 0.42,0.21 v 0 a 0.55,0.55 0 0 0 0.49,-0.35 0.53,0.53 0 0 0 -0.12,-0.59 0.48,0.48 0 0 0 -0.41,-0.19"
         transform="translate(-2.52,-6.68)"
         id="path201" /><path
         class="cls-1"
         d="m 26.51,36.88 a 0.37,0.37 0 0 1 -0.2,0.07 0.34,0.34 0 0 1 -0.3,-0.18 0.36,0.36 0 0 1 0.06,-0.38 0.33,0.33 0 0 1 0.44,0.49 m -0.26,-0.83 a 0.58,0.58 0 0 0 -0.51,0.29 0.65,0.65 0 0 0 0.11,0.68 0.66,0.66 0 0 0 0.48,0.23 0.6,0.6 0 0 0 0.54,-0.37 0.55,0.55 0 0 0 -0.15,-0.62 0.61,0.61 0 0 0 -0.47,-0.21"
         transform="translate(-2.52,-6.68)"
         id="path202" /><path
         class="cls-1"
         d="m 16.27,34.21 a 3.51,3.51 0 0 1 -1.15,-1.05 c 0,-0.06 -0.08,-0.1 -0.13,-0.09 a 0.08,0.08 0 0 0 -0.07,0 0.19,0.19 0 0 0 0,0.18 2.26,2.26 0 0 0 1.36,1.09 c 0,0 0.09,0 0.09,-0.05 0,-0.05 0,-0.08 -0.08,-0.12"
         transform="translate(-2.52,-6.68)"
         id="path203" /><path
         class="cls-1"
         d="m 16.2,36.4 a 5.57,5.57 0 0 0 -1.11,-0.18 0.09,0.09 0 0 0 -0.09,0.07 0.12,0.12 0 0 0 0.09,0.12 4.59,4.59 0 0 1 1.12,0.41 h 0.06 c 0,0 0,0 0,-0.07 v -0.24 c 0,-0.07 0,-0.08 -0.1,-0.12"
         transform="translate(-2.52,-6.68)"
         id="path204" /><path
         class="cls-1"
         d="m 14.2,35.84 a 1.23,1.23 0 0 0 -0.77,0.36 c 0,0 0,0.09 0,0.11 0,0.02 0,0 0.1,0 a 0.49,0.49 0 0 0 0.22,-0.06 0.9,0.9 0 0 1 0.55,-0.23 h 0.08 c 0.16,0 0.21,0.11 0.21,0.19 a 0.17,0.17 0 0 1 -0.16,0.16 0.12,0.12 0 0 1 -0.09,0 0.15,0.15 0 0 0 -0.11,0 h -0.09 a 1.6,1.6 0 0 0 -0.36,0.16 v 0 H 13.7 13.65 c 0,0 0,0 0.05,0 a 1.85,1.85 0 0 0 0.57,0.1 0.55,0.55 0 0 0 0.5,-0.23 0.47,0.47 0 0 0 0,-0.43 0.51,0.51 0 0 0 -0.48,-0.24"
         transform="translate(-2.52,-6.68)"
         id="path205" /><path
         class="cls-1"
         d="m 10,31.48 c 0,0 -0.11,0 -0.11,0.07 0,0.07 0.13,0.16 0.35,0.2 A 1,1 0 0 1 11,32 c 0.13,0.11 0.11,0.21 0.1,0.24 a 0.19,0.19 0 0 1 -0.17,0.11 0.17,0.17 0 0 1 -0.16,-0.12 c 0,-0.07 0,-0.12 -0.16,-0.17 A 1.73,1.73 0 0 0 10.16,31.95 H 9.99 9.9 a 0.18,0.18 0 0 0 0,0.06 c 0.45,0.58 0.79,0.66 1,0.66 a 0.41,0.41 0 0 0 0.35,-0.21 0.51,0.51 0 0 0 0,-0.49 A 1.3,1.3 0 0 0 10,31.48"
         transform="translate(-2.52,-6.68)"
         id="path206" /><path
         class="cls-1"
         d="m 28.35,34.72 a 2.13,2.13 0 0 0 -0.85,-0.19 0.83,0.83 0 0 0 -0.57,0.18 0.52,0.52 0 0 0 -0.17,0.39 c 0,0.24 0.19,0.5 0.61,0.49 a 1.83,1.83 0 0 0 0.9,-0.31 c 0.05,-0.05 0.05,-0.07 0.05,-0.08 a 0.15,0.15 0 0 0 -0.08,0 h -0.18 a 1.87,1.87 0 0 0 -0.52,-0.06 0.22,0.22 0 0 0 -0.23,0.11 0.14,0.14 0 0 1 -0.12,0.06 0.21,0.21 0 0 1 -0.2,-0.16 c 0,0 0,-0.16 0.18,-0.23 a 0.88,0.88 0 0 1 0.29,-0.05 1.2,1.2 0 0 1 0.53,0.11 h 0.19 c 0.17,0 0.24,-0.05 0.25,-0.08 0.01,-0.03 0,-0.08 -0.08,-0.12"
         transform="translate(-2.52,-6.68)"
         id="path207" /><path
         class="cls-1"
         d="M 25.31,35.27 A 2.3,2.3 0 0 0 26.38,35 c 0,0 0.09,-0.07 0.08,-0.13 a 0.18,0.18 0 0 0 -0.17,-0.09 0.2,0.2 0 0 0 -0.1,0 5,5 0 0 1 -1.1,0.16 6.62,6.62 0 0 1 -0.72,0 c -0.1,0 -0.16,0.06 -0.16,0.11 0,0.05 0.06,0.13 0.22,0.16 0.35,0 0.64,0 0.88,0"
         transform="translate(-2.52,-6.68)"
         id="path208" /><path
         class="cls-1"
         d="m 25.37,36.11 a 0.16,0.16 0 0 1 -0.06,-0.13 c 0,-0.06 0.08,-0.1 0.2,-0.14 l 1,-0.29 a 0.09,0.09 0 0 0 0.06,-0.1 c 0,0 0,-0.12 -0.21,-0.12 v 0 c -0.93,0.16 -1.42,0.36 -1.47,0.59 -0.05,0.23 0.11,0.31 0.39,0.49 a 0.18,0.18 0 0 0 0.12,0 c 0.08,0 0.14,0 0.15,-0.07 0.01,-0.07 0,-0.09 0,-0.12 z"
         transform="translate(-2.52,-6.68)"
         id="path209" /><path
         class="cls-1"
         d="m 25.26,36.67 -0.9,0.22 a 0.13,0.13 0 0 0 0,0.16 0.16,0.16 0 0 0 0.16,0.14 h 0.05 l 0.84,-0.2 a 0.14,0.14 0 0 0 0.06,-0.16 0.19,0.19 0 0 0 -0.17,-0.15"
         transform="translate(-2.52,-6.68)"
         id="path210" /><path
         class="cls-1"
         d="m 15.31,35.37 c -0.16,-0.47 -1.13,-0.89 -2.47,-1 a 0.14,0.14 0 0 0 -0.15,0.09 c 0,0.05 0,0.12 0.13,0.15 a 5.61,5.61 0 0 1 2,0.72 0.38,0.38 0 0 1 0.16,0.22 0.21,0.21 0 0 1 -0.09,0.15 0.18,0.18 0 0 0 -0.09,0.14 c 0,0.13 0.05,0.16 0.14,0.16 h 0.13 a 0.57,0.57 0 0 0 0.2,-0.56"
         transform="translate(-2.52,-6.68)"
         id="path211" /><path
         class="cls-1"
         d="m 12.93,33.88 c 0,-0.2 -0.2,-0.66 -1.35,-1.2 h -0.07 c 0,0 0,0 -0.06,0 a 0.13,0.13 0 0 0 0.05,0.13 l 0.21,0.15 0.11,0.08 a 3.68,3.68 0 0 1 0.67,0.51 0.19,0.19 0 0 1 0.08,0.15 0.12,0.12 0 0 1 -0.06,0.1 c 0,0.07 0,0.09 0,0.09 a 0.41,0.41 0 0 0 0.25,0.08 0.16,0.16 0 0 0 0.17,-0.11"
         transform="translate(-2.52,-6.68)"
         id="path212" /><path
         class="cls-1"
         d="m 13.13,33.2 0.48,0.21 a 2.07,2.07 0 0 0 0.62,0.24 h 0.07 c 0.17,0 0.29,-0.07 0.32,-0.18 a 0.24,0.24 0 0 0 -0.14,-0.25 h -0.09 v 0 A 0.22,0.22 0 0 1 14.2,33.35 H 14.04 A 16.35,16.35 0 0 1 11.81,32.24 H 11.7 a 0.09,0.09 0 0 0 -0.08,0 v 0.1 a 10.35,10.35 0 0 0 1.5,0.88"
         transform="translate(-2.52,-6.68)"
         id="path213" /><path
         id="path262"
         class="cls-1"
         transform="translate(-2.52,-6.68)"
         d="m 29.2313,36.987175 c -8.58e-4,0.0018 -0.0026,0.0077 -0.0038,0.01206 0.0025,-0.0027 0.0034,-0.0039 0.006,-0.0067 1.49e-4,-0.0074 -6.71e-4,-0.0086 -0.0022,-0.0054 z" /></g></g></svg>
